<?xml version="1.0" encoding="UTF-8"?>
<svg id="Layer_1" data-name="Layer 1" xmlns="http://www.w3.org/2000/svg" xmlns:xlink="http://www.w3.org/1999/xlink" viewBox="0 0 47 47">
  <defs>
    <style>
      .cls-1 {
        fill: none;
      }

      .cls-2 {
        fill: #c98853;
      }

      .cls-3 {
        fill: url(#linear-gradient);
      }
    </style>
    <linearGradient id="linear-gradient" x1="27" y1="13.82" x2="16.44" y2="33.97" gradientUnits="userSpaceOnUse">
      <stop offset="0" stop-color="#ffaf61"/>
      <stop offset=".29" stop-color="#d29b65"/>
      <stop offset=".61" stop-color="#c98c4f"/>
      <stop offset=".63" stop-color="#c6884a"/>
      <stop offset=".83" stop-color="#b36e2e"/>
      <stop offset=".95" stop-color="#ad6524"/>
    </linearGradient>
  </defs>
  <path id="check-square" class="cls-3" d="M35.72,17.77l-15.05,14.93c-.41.41-1.07.4-1.48,0,0,0,0,0,0,0l-7.91-7.98c-.41-.41-.4-1.07,0-1.48,0,0,0,0,0,0l1.98-1.97c.41-.41,1.07-.4,1.48,0,0,0,0,0,0,0l5.21,5.26,12.32-12.23c.41-.41,1.07-.4,1.48,0,0,0,0,0,0,0l1.97,1.98c.41.41.4,1.07,0,1.48Z"/>
  <circle class="cls-1" cx="23.5" cy="23.5" r="23.5"/>
  <path class="cls-2" d="M23.5,0C10.54,0,0,10.54,0,23.5s10.54,23.5,23.5,23.5,23.5-10.54,23.5-23.5S36.45,0,23.5,0ZM23.5,43.04c-10.79,0-19.54-8.75-19.54-19.54S12.71,3.96,23.5,3.96s19.53,8.75,19.53,19.54-8.74,19.54-19.53,19.54Z"/>
</svg>