<svg xmlns="http://www.w3.org/2000/svg" width="44.999" height="45.001" viewBox="0 0 44.999 45.001">
  <path id="times" d="M29.2,118.5,44.348,103.35a2.247,2.247,0,0,0,0-3.175l-3.52-3.52a2.247,2.247,0,0,0-3.175,0L22.506,111.8,7.358,96.656a2.247,2.247,0,0,0-3.175,0L.665,100.174a2.247,2.247,0,0,0,0,3.175L15.813,118.5.665,133.646a2.247,2.247,0,0,0,0,3.175l3.52,3.52a2.247,2.247,0,0,0,3.175,0l15.147-15.149L37.654,140.34a2.247,2.247,0,0,0,3.175,0l3.52-3.52a2.247,2.247,0,0,0,0-3.175Z" transform="translate(-0.008 -95.997)" fill="#fff"/>
</svg>
