<svg xmlns="http://www.w3.org/2000/svg" width="48" height="54.857" viewBox="0 0 48 54.857">
  <path id="copy" d="M46.494,7.065,40.935,1.506A5.143,5.143,0,0,0,37.3,0H18.857a5.143,5.143,0,0,0-5.143,5.143v5.143H5.143A5.143,5.143,0,0,0,0,15.429V49.714a5.143,5.143,0,0,0,5.143,5.143h24a5.143,5.143,0,0,0,5.143-5.143V44.571h8.571A5.143,5.143,0,0,0,48,39.429V10.7a5.143,5.143,0,0,0-1.506-3.637ZM37.714,3.481a1.7,1.7,0,0,1,.8.449L44.069,9.49a1.7,1.7,0,0,1,.449.8h-6.8ZM30.857,49.714a1.716,1.716,0,0,1-1.714,1.714h-24a1.716,1.716,0,0,1-1.714-1.714V15.429a1.716,1.716,0,0,1,1.714-1.714h8.571V39.429a5.143,5.143,0,0,0,5.143,5.143h12ZM44.571,39.429a1.716,1.716,0,0,1-1.714,1.714h-24a1.716,1.716,0,0,1-1.714-1.714V5.143a1.716,1.716,0,0,1,1.714-1.714H34.286v7.714a2.579,2.579,0,0,0,2.571,2.571h7.714Z" fill="#fff"/>
</svg>
