<svg xmlns="http://www.w3.org/2000/svg" xmlns:xlink="http://www.w3.org/1999/xlink" id="Layer_1" data-name="Layer 1" viewBox="46.18 28.68 62.45 75.9">
  <defs>
    <style>
      .cls-1 {
        clip-path: url(#clippath-4);
      }

      .cls-2 {
        fill: #fff;
      }

      .cls-3 {
        fill: none;
      }

      .cls-4 {
        clip-path: url(#clippath-1);
      }

      .cls-5 {
        clip-path: url(#clippath-3);
      }

      .cls-6 {
        clip-path: url(#clippath-2);
      }

      .cls-7 {
        clip-path: url(#clippath);
      }
    </style>
    <clipPath id="clippath">
      <rect class="cls-3" x="44.5" y="27" width="65.81" height="79.27"/>
    </clipPath>
    <clipPath id="clippath-1">
      <rect class="cls-3" x="44.5" y="27" width="65.81" height="79.27"/>
    </clipPath>
    <clipPath id="clippath-2">
      <rect class="cls-3" x="83.26" y="77.34" width="9.55" height="9.55"/>
    </clipPath>
    <clipPath id="clippath-3">
      <rect class="cls-3" x="74" y="61.54" width="9.55" height="9.55"/>
    </clipPath>
    <clipPath id="clippath-4">
      <rect class="cls-3" x="64.65" y="77.29" width="9.55" height="9.55"/>
    </clipPath>
  </defs>
  <g class="cls-7">
    <g class="cls-4">
      <path id="Path_211" data-name="Path 211" class="cls-2" d="M82.11,32.03c.23.02.45.07.67.16h.02s.02.01.02.01c.42.18.8.43,1.12.76,1.31,1.29,3.07,2.01,4.9,2.03h.13c-.7.73-1.36,1.5-1.96,2.31l-.25.32c-.55.68-1.29,1.47-1.88,2.07h-15.59c-.76-.76-1.48-1.56-2.14-2.41h0s0-.02,0-.02c-.6-.8-1.27-1.55-1.99-2.24h.1c.4,0,.81-.04,1.2-.12,1.36-.27,2.62-.89,3.66-1.79.43-.34.88-.66,1.36-.95.14-.05.28-.08.43-.07.13,0,.25.01.37.05.97.89,2.04,1.66,3.19,2.29l.95.52,1.08-.14c1.43-.32,2.72-1.07,3.72-2.15.25-.27.56-.49.91-.63h0ZM85.54,50.96c3,3.6,6.37,6.87,10.06,9.76,3.06,2.29,5.6,5.21,7.43,8.56,2.22,4.44,2.86,9.51,1.79,14.37-.94,4.98-3.82,9.38-8.02,12.23-4.94,3.5-11.7,5.36-19.56,5.36s-14.53-2.08-19.54-6.03c-3.93-2.99-6.67-7.27-7.77-12.09-.87-4.33-.31-8.83,1.59-12.82,1.83-3.8,4.5-7.14,7.8-9.76,3.49-2.85,6.67-6.06,9.5-9.57h16.71M82.11,28.68c-1.2.07-2.33.6-3.14,1.48-1.38,1.25-1.9,1.32-1.9,1.32-.92-.51-1.77-1.12-2.54-1.83-.73-.63-1.67-.96-2.63-.92-.74-.01-1.47.17-2.12.53-1.96,1.16-2.38,2.06-3.99,2.35-.18.04-.36.06-.55.06-1.37,0-3.12-.89-4.52-.89-.46-.02-.92.12-1.3.39-1.61,1.22-.67,3.21.77,4.21,1.62,1.05,3.06,2.36,4.24,3.89,1.06,1.35,2.22,2.61,3.47,3.79h18.35c1.1-1.06,2.14-2.18,3.12-3.34,1.14-1.7,2.63-3.13,4.37-4.21,1.83-1.09,2.8-3.79.42-4.69-.35-.14-.72-.21-1.09-.21-1.35,0-2.27,1.02-4.18,1.05h-.06c-2.29,0-2.63-1.81-4.92-2.6-.57-.22-1.18-.34-1.8-.36M87.17,47.61h-19.99c-2.9,3.82-6.24,7.29-9.96,10.32-7.04,5.72-12.73,14.88-10.58,25.83,1.93,9.77,11.83,20.82,30.59,20.82s28.86-9.16,30.88-20.34c2.51-13.69-4.66-21.6-10.44-26.16-3.93-3.04-7.46-6.56-10.51-10.48"/>
      <path id="Path_212" data-name="Path 212" class="cls-2" d="M88.06,76.12h-.06c-2.53.01-4.58-2.03-4.59-4.55,0-.8.2-1.59.6-2.29,1.63-2.89.61-6.55-2.27-8.18-2.89-1.63-6.55-.61-8.18,2.27-1.03,1.83-1.03,4.06,0,5.89,1.23,2.21.44,4.99-1.77,6.22-.7.39-1.48.59-2.28.58h-.06c-3.31,0-6,2.68-6.01,5.99s2.68,6,5.99,6.01c2.2,0,4.23-1.2,5.28-3.14,1.22-2.21,4.01-3.02,6.22-1.8.76.42,1.39,1.05,1.81,1.82,1.56,2.93,5.2,4.03,8.12,2.47,2.93-1.56,4.03-5.2,2.47-8.12-1.04-1.95-3.07-3.17-5.28-3.18M69.42,86.68c-2.54,0-4.6-2.08-4.59-4.62,0-2.54,2.08-4.6,4.62-4.59,2.54,0,4.6,2.08,4.59,4.62,0,2.54-2.08,4.6-4.62,4.59h0M78.74,81.34c-2.49,0-4.51-2.03-4.5-4.52,0-2.49,2.03-4.51,4.52-4.5,2.49,0,4.5,2.03,4.5,4.52,0,2.49-2.03,4.51-4.52,4.5h0M78.77,70.93c-2.54,0-4.6-2.08-4.59-4.62,0-2.54,2.08-4.6,4.62-4.59,2.54,0,4.6,2.08,4.59,4.62,0,2.54-2.08,4.6-4.62,4.59h0M88.03,86.73c-2.54,0-4.6-2.08-4.59-4.62,0-2.54,2.08-4.6,4.62-4.59,2.54,0,4.6,2.08,4.59,4.62,0,2.54-2.08,4.6-4.62,4.59h0"/>
      <g class="cls-6">
        <g id="Group_457" data-name="Group 457">
          <path id="Path_213" data-name="Path 213" class="cls-2" d="M88.05,77.34c-2.64,0-4.78,2.12-4.79,4.76s2.12,4.78,4.76,4.79c2.64,0,4.78-2.12,4.79-4.76h0c0-2.64-2.13-4.78-4.76-4.79M88.03,84.42c-1.27,0-2.3-1.04-2.29-2.31,0-1.27,1.04-2.3,2.31-2.29,1.27,0,2.3,1.04,2.29,2.31,0,1.27-1.04,2.3-2.31,2.29h0"/>
        </g>
      </g>
      <g class="cls-5">
        <g id="Group_460" data-name="Group 460">
          <path id="Path_214" data-name="Path 214" class="cls-2" d="M78.79,61.54c-2.64,0-4.78,2.12-4.79,4.76,0,2.64,2.12,4.78,4.76,4.79,2.64,0,4.78-2.12,4.79-4.76h0c0-2.64-2.13-4.78-4.76-4.79M78.77,68.61c-1.27,0-2.3-1.04-2.29-2.31,0-1.27,1.04-2.3,2.31-2.29,1.27,0,2.3,1.04,2.29,2.31s-1.04,2.3-2.31,2.29h0"/>
        </g>
      </g>
      <path id="Path_215" data-name="Path 215" class="cls-2" d="M78.79,61.71c-2.54,0-4.61,2.05-4.62,4.59s2.05,4.61,4.59,4.62c2.54,0,4.61-2.05,4.62-4.59,0-2.54-2.05-4.61-4.59-4.62h0M78.77,68.53c-1.22,0-2.22-1-2.21-2.22,0-1.22,1-2.22,2.22-2.21,1.22,0,2.22,1,2.21,2.22s-1,2.22-2.22,2.21h0"/>
      <path id="Path_216" data-name="Path 216" class="cls-2" d="M81.26,63.74h0c-.66-.64-1.55-1.01-2.47-1.01-1.99,0-3.6,1.63-3.59,3.62,0,.94.35,1.84,1,2.52h0c.67.71,1.6,1.11,2.57,1.12,1.99,0,3.6-1.63,3.59-3.62,0-.99-.39-1.94-1.1-2.63M81,66.37c0,1.23-.99,2.24-2.22,2.24h0c-.61,0-1.2-.26-1.62-.71-.84-.92-.78-2.34.13-3.18.41-.38.94-.59,1.5-.6.56,0,1.1.22,1.51.61.45.43.7,1.02.7,1.65"/>
      <path id="Path_217" data-name="Path 217" class="cls-2" d="M88.05,77.52c-2.54,0-4.61,2.05-4.62,4.59,0,2.54,2.05,4.61,4.59,4.62,2.54,0,4.61-2.05,4.62-4.59,0-2.54-2.05-4.61-4.59-4.62h0M88.03,84.34c-1.22,0-2.22-1-2.21-2.22,0-1.22,1-2.22,2.22-2.21,1.22,0,2.22,1,2.21,2.22,0,1.22-1,2.22-2.22,2.21h0"/>
      <path id="Path_218" data-name="Path 218" class="cls-2" d="M90.54,79.77h0c-.66-.65-1.55-1.02-2.49-1.02-1.99,0-3.6,1.63-3.59,3.62,0,.93.35,1.83.98,2.51h0c.67.72,1.61,1.13,2.59,1.13,2.01-.03,3.62-1.67,3.59-3.68-.01-.96-.4-1.88-1.09-2.55M90.26,82.38c0,1.23-.99,2.24-2.22,2.24h0c-.62,0-1.2-.26-1.62-.72-.84-.92-.78-2.34.14-3.18.41-.37.94-.58,1.49-.59.57,0,1.11.22,1.52.61.45.43.7,1.02.7,1.64"/>
      <g class="cls-1">
        <g id="Group_463" data-name="Group 463">
          <path id="Path_219" data-name="Path 219" class="cls-2" d="M69.44,77.29c-2.64,0-4.78,2.12-4.79,4.76,0,2.64,2.12,4.78,4.76,4.79s4.78-2.12,4.79-4.76h0c0-2.64-2.13-4.78-4.76-4.79M69.42,84.37c-1.27,0-2.3-1.04-2.29-2.31s1.04-2.3,2.31-2.29c1.27,0,2.3,1.04,2.29,2.31,0,1.27-1.04,2.3-2.31,2.29h0"/>
        </g>
      </g>
      <path id="Path_220" data-name="Path 220" class="cls-2" d="M69.44,77.46c-2.54,0-4.61,2.05-4.62,4.59,0,2.54,2.05,4.61,4.59,4.62,2.54,0,4.61-2.05,4.62-4.59,0-2.54-2.05-4.61-4.59-4.62h0M69.43,84.29c-1.22,0-2.22-.99-2.22-2.22,0-1.22.99-2.22,2.22-2.22s2.22.99,2.22,2.22c0,0,0,0,0,0,0,1.22-1,2.22-2.22,2.21h0"/>
      <path id="Path_221" data-name="Path 221" class="cls-2" d="M71.93,79.72h0c-.66-.65-1.55-1.02-2.49-1.02-1.99,0-3.6,1.63-3.59,3.62,0,.93.35,1.83.98,2.51h0c.67.72,1.61,1.13,2.59,1.13,1.99,0,3.6-1.63,3.59-3.62,0-.98-.39-1.92-1.09-2.61M71.65,82.33c0,1.23-.99,2.24-2.22,2.24h0c-.62,0-1.2-.26-1.62-.72-.84-.92-.78-2.34.14-3.18.41-.37.94-.58,1.49-.59.57,0,1.11.22,1.52.61.45.43.7,1.02.7,1.64"/>
    </g>
  </g>
</svg>