<svg xmlns="http://www.w3.org/2000/svg" xmlns:xlink="http://www.w3.org/1999/xlink" width="156" height="175" viewBox="0 0 156 175">
  <defs>
    <clipPath id="clip-path">
      <rect id="Rectangle_195" data-name="Rectangle 195" width="65.809" height="79.266" fill="#fff"/>
    </clipPath>
    <clipPath id="clip-path-3">
      <rect id="Rectangle_188" data-name="Rectangle 188" width="9.553" height="9.553" fill="#fff"/>
    </clipPath>
  </defs>
  <g id="Group_1009" data-name="Group 1009" transform="translate(-231 -26)">
    <rect id="Rectangle_34" data-name="Rectangle 34" width="156" height="175" rx="40" transform="translate(231 26)" fill="#060402" opacity="0.62"/>
    <text id="Earn" transform="translate(310 171)" fill="#fff" font-size="28" font-family="Inter-Regular, Inter"><tspan x="-29" y="0">Earn</tspan></text>
    <g id="Group_468" data-name="Group 468" transform="translate(276 53)" clip-path="url(#clip-path)">
      <g id="Group_467" data-name="Group 467">
        <g id="Group_466" data-name="Group 466" clip-path="url(#clip-path)">
          <path id="Path_211" data-name="Path 211" d="M45.936,13.354a2.1,2.1,0,0,1,.666.157l.019.007.02.007a3.415,3.415,0,0,1,1.122.76,7.081,7.081,0,0,0,4.9,2.029h.128a24.008,24.008,0,0,0-1.963,2.307l-.249.32c-.547.678-1.293,1.471-1.88,2.073H33.11A24.982,24.982,0,0,1,30.974,18.6l-.009-.013-.009-.012a17.676,17.676,0,0,0-1.993-2.235h.105a5.909,5.909,0,0,0,1.2-.121,8.026,8.026,0,0,0,3.663-1.793,12.575,12.575,0,0,1,1.357-.946,1.057,1.057,0,0,1,.432-.073,1.481,1.481,0,0,1,.371.045,16.2,16.2,0,0,0,3.186,2.29l.952.523,1.078-.135a7.219,7.219,0,0,0,3.716-2.145,2.486,2.486,0,0,1,.908-.628Zm3.421,18.932a66.666,66.666,0,0,0,10.061,9.756,26.555,26.555,0,0,1,7.429,8.564,21.7,21.7,0,0,1,1.792,14.365A19.025,19.025,0,0,1,60.618,77.2c-4.937,3.505-11.7,5.358-19.562,5.358-7.771,0-14.527-2.085-19.537-6.03a21.054,21.054,0,0,1-7.766-12.087,20.479,20.479,0,0,1,1.591-12.823,28.037,28.037,0,0,1,7.8-9.764,65.172,65.172,0,0,0,9.5-9.566H49.357M45.936,10a4.636,4.636,0,0,0-3.144,1.481c-1.382,1.253-1.9,1.318-1.9,1.318a12.97,12.97,0,0,1-2.539-1.832,3.726,3.726,0,0,0-2.633-.916,4.25,4.25,0,0,0-2.124.531c-1.96,1.157-2.378,2.057-3.985,2.346a2.513,2.513,0,0,1-.548.056c-1.374,0-3.118-.894-4.521-.894a2.071,2.071,0,0,0-1.295.388c-1.607,1.221-.675,3.214.771,4.21a17.091,17.091,0,0,1,4.242,3.889,35.287,35.287,0,0,0,3.471,3.792h18.35A45.35,45.35,0,0,0,53.2,21.026a14.485,14.485,0,0,1,4.371-4.21c1.832-1.093,2.8-3.792.418-4.692a3.073,3.073,0,0,0-1.091-.212c-1.353,0-2.268,1.022-4.179,1.048h-.061c-2.291,0-2.627-1.807-4.921-2.6a5.316,5.316,0,0,0-1.8-.356m5.051,18.932H31a59.952,59.952,0,0,1-9.963,10.316C14,44.968,8.308,54.127,10.461,65.086c1.928,9.77,11.827,20.825,30.595,20.825,18.19,0,28.859-9.159,30.884-20.343,2.507-13.691-4.66-21.6-10.445-26.16A59.207,59.207,0,0,1,50.986,28.932" transform="translate(-8.322 -8.323)" fill="#fff"/>
          <path id="Path_212" data-name="Path 212" d="M137.5,214.438h-.06a4.574,4.574,0,0,1-3.994-6.84,6,6,0,1,0-10.453-.009,4.573,4.573,0,0,1-4.043,6.8h-.06a6,6,0,1,0,5.267,8.86,4.577,4.577,0,0,1,8.027.022,6.005,6.005,0,1,0,5.316-8.832M118.861,225a4.606,4.606,0,1,1,4.619-4.593A4.606,4.606,0,0,1,118.861,225m9.314-5.342a4.511,4.511,0,1,1,4.524-4.5,4.512,4.512,0,0,1-4.524,4.5m.034-10.413a4.606,4.606,0,1,1,4.619-4.593,4.606,4.606,0,0,1-4.619,4.593m9.261,15.806a4.606,4.606,0,1,1,4.619-4.593,4.606,4.606,0,0,1-4.619,4.593" transform="translate(-93.938 -165.317)" fill="#fff"/>
          <g id="Group_459" data-name="Group 459" transform="translate(38.763 50.344)" style="mix-blend-mode: hard-light;isolation: isolate">
            <g id="Group_458" data-name="Group 458">
              <g id="Group_457" data-name="Group 457" clip-path="url(#clip-path-3)">
                <path id="Path_213" data-name="Path 213" d="M235.907,300.166a4.777,4.777,0,1,0,4.763,4.79,4.777,4.777,0,0,0-4.763-4.79m-.019,7.077a2.3,2.3,0,1,1,2.306-2.294,2.3,2.3,0,0,1-2.306,2.294" transform="translate(-231.117 -300.166)" fill="#fff"/>
              </g>
            </g>
          </g>
          <g id="Group_462" data-name="Group 462" transform="translate(29.502 34.538)" style="mix-blend-mode: hard-light;isolation: isolate">
            <g id="Group_461" data-name="Group 461">
              <g id="Group_460" data-name="Group 460" clip-path="url(#clip-path-3)">
                <path id="Path_214" data-name="Path 214" d="M180.689,205.927a4.777,4.777,0,1,0,4.763,4.79,4.777,4.777,0,0,0-4.763-4.79M180.669,213a2.3,2.3,0,1,1,2.306-2.294A2.3,2.3,0,0,1,180.669,213" transform="translate(-175.899 -205.927)" fill="#fff"/>
              </g>
            </g>
          </g>
          <path id="Path_215" data-name="Path 215" d="M181.535,206.943a4.606,4.606,0,1,0,4.593,4.619,4.606,4.606,0,0,0-4.593-4.619m-.019,6.824a2.218,2.218,0,1,1,2.224-2.212,2.218,2.218,0,0,1-2.224,2.212" transform="translate(-147.243 -172.234)" fill="#fff"/>
          <path id="Path_216" data-name="Path 216" d="M189.082,214.055h0a3.547,3.547,0,0,0-2.469-1.009,3.606,3.606,0,0,0-3.592,3.619,3.643,3.643,0,0,0,1,2.524h0a3.55,3.55,0,0,0,2.574,1.115,3.606,3.606,0,0,0,3.592-3.619,3.644,3.644,0,0,0-1.1-2.63m-.262,2.626a2.232,2.232,0,0,1-2.224,2.241,2.2,2.2,0,0,1-1.615-.714,2.253,2.253,0,0,1,1.628-3.779,2.195,2.195,0,0,1,1.511.608,2.253,2.253,0,0,1,.7,1.645" transform="translate(-152.324 -177.314)" fill="#fff"/>
          <path id="Path_217" data-name="Path 217" d="M236.754,301.184a4.606,4.606,0,1,0,4.593,4.619,4.606,4.606,0,0,0-4.593-4.619m-.019,6.824a2.218,2.218,0,1,1,2.224-2.212,2.218,2.218,0,0,1-2.224,2.212" transform="translate(-193.201 -250.669)" fill="#fff"/>
          <path id="Path_218" data-name="Path 218" d="M244.315,309.546h0a3.547,3.547,0,0,0-2.485-1.025,3.606,3.606,0,0,0-3.592,3.619,3.644,3.644,0,0,0,.982,2.507h0a3.553,3.553,0,0,0,2.59,1.131,3.639,3.639,0,0,0,2.506-6.233m-.278,2.61a2.232,2.232,0,0,1-2.224,2.241,2.2,2.2,0,0,1-1.62-.719,2.253,2.253,0,0,1,1.632-3.774,2.194,2.194,0,0,1,1.516.613,2.252,2.252,0,0,1,.7,1.64" transform="translate(-198.279 -256.775)" fill="#fff"/>
          <g id="Group_465" data-name="Group 465" transform="translate(20.154 50.293)" style="mix-blend-mode: hard-light;isolation: isolate">
            <g id="Group_464" data-name="Group 464">
              <g id="Group_463" data-name="Group 463" clip-path="url(#clip-path-3)">
                <path id="Path_219" data-name="Path 219" d="M124.954,299.862a4.777,4.777,0,1,0,4.763,4.79,4.777,4.777,0,0,0-4.763-4.79m-.019,7.076a2.3,2.3,0,1,1,2.306-2.294,2.3,2.3,0,0,1-2.306,2.294" transform="translate(-120.164 -299.862)" fill="#fff"/>
              </g>
            </g>
          </g>
          <path id="Path_220" data-name="Path 220" d="M125.8,300.879a4.606,4.606,0,1,0,4.593,4.619,4.606,4.606,0,0,0-4.593-4.619m-.019,6.824A2.218,2.218,0,1,1,128,305.491a2.218,2.218,0,0,1-2.224,2.212" transform="translate(-100.856 -250.415)" fill="#fff"/>
          <path id="Path_221" data-name="Path 221" d="M133.362,309.237h0a3.548,3.548,0,0,0-2.485-1.025,3.606,3.606,0,0,0-3.592,3.619,3.644,3.644,0,0,0,.982,2.507h0a3.553,3.553,0,0,0,2.59,1.131,3.606,3.606,0,0,0,3.592-3.619,3.642,3.642,0,0,0-1.086-2.613m-.278,2.61a2.232,2.232,0,0,1-2.224,2.241,2.2,2.2,0,0,1-1.62-.719,2.253,2.253,0,0,1,1.632-3.774,2.194,2.194,0,0,1,1.516.613,2.253,2.253,0,0,1,.7,1.64" transform="translate(-105.936 -256.517)" fill="#fff"/>
        </g>
      </g>
    </g>
  </g>
</svg>
