<svg xmlns="http://www.w3.org/2000/svg" width="442.121" height="381.317" viewBox="0 0 442.121 381.317">
  <g id="Layer_2" data-name="Layer 2" transform="translate(0.435 -19.993)">
    <g id="Layer_2-2" data-name="Layer 2" transform="translate(-0.435 19.993)">
      <path id="Path_714" data-name="Path 714" d="M441.686,202.371a82.329,82.329,0,0,1-142.618,56.106q1.887-2.674,3.655-5.48a95.848,95.848,0,0,0,9.437-20.063,56.232,56.232,0,1,0,50.041-86.72c-.937-.05-1.887-.076-2.837-.076a55.88,55.88,0,0,0-27.367,7.1l-.063.038q-.812.447-1.6.925l-.126.075a56.509,56.509,0,0,0-18.044,17.534,54.185,54.185,0,0,0-2.863,4.939,55.912,55.912,0,0,0-6.166,25.618,81.938,81.938,0,0,1-11.954,42.75c-.352.585-.717,1.164-1.088,1.743h0a82.745,82.745,0,0,1-7.279,9.676c-.573.629-1.145,1.29-1.736,1.919a82.568,82.568,0,0,1-30.029,20.51h-.057c-.315.113-.629.233-.931.365l-.12.044a26.078,26.078,0,0,0-16.081,24.115v49.777a21.6,21.6,0,0,0,16.131,19.761h0a19.6,19.6,0,0,0,1.975.409l38.126,7.87H151.46l38.226-7.9c.579-.094,1.151-.214,1.711-.352a21.567,21.567,0,0,0,16.282-20.906V303.529a52.2,52.2,0,0,1,32.8-48.494c.384-.132.768-.283,1.145-.44a56.232,56.232,0,0,0,21.485-15.257c.535-.629,1.051-1.227,1.554-1.856a56.219,56.219,0,0,0-15.376-83.562c-.271-.17-.547-.327-.83-.484a55.785,55.785,0,0,0-24.889-7.222q-1.409-.075-2.831-.075c-.944,0-1.887,0-2.812.069a55.811,55.811,0,0,0-24.536,7.027l-.069.044c-.51.277-1.013.573-1.51.874a56.478,56.478,0,0,0-18.245,17.654,54.166,54.166,0,0,0-2.863,4.939,56.3,56.3,0,0,0,2.863,56.194,55.006,55.006,0,0,0,4.832,6.4,56.156,56.156,0,0,0,29.318,17.742q2.089.5,4.221.837a63.077,63.077,0,0,0-4.221,4.888c-.667.856-1.309,1.718-1.931,2.6a65.757,65.757,0,0,0-8.267,15.974A82.662,82.662,0,0,1,151.46,246.9v-.038h0a81.976,81.976,0,0,1-13.055-44.511,56.235,56.235,0,0,0-27.758-48.5l-.163-.09-.591-.346a55.917,55.917,0,0,0-27.72-7.3c-.944,0-1.887,0-2.812.069a56.238,56.238,0,1,0,50.022,86.726,95.756,95.756,0,0,0,13.061,25.537A82.417,82.417,0,1,1,78.273,120.105a81.284,81.284,0,0,1-5.555-13.614,82.347,82.347,0,1,1,157.479,0c-3.108-.3-6.291-.459-9.437-.459s-6.335.157-9.437.459a95.92,95.92,0,0,0-9.77,1.46,56.251,56.251,0,1,0-78.4,22.988l.371.214a82.92,82.92,0,0,1,27.94,26.713A82.92,82.92,0,0,1,178.9,131.442l.126-.069c.4-.226.8-.453,1.2-.7a81.875,81.875,0,0,1,36.666-10.551q1.931-.094,3.888-.094t3.9.094a81.932,81.932,0,0,1,37.087,10.815l.321.189a82.75,82.75,0,0,1,27.978,26.738,82.744,82.744,0,0,1,27.443-26.424l.107-.063c.4-.22.8-.453,1.189-.692a56.232,56.232,0,1,0-75.949-78.906,95.956,95.956,0,0,0-13.067-25.537A82.366,82.366,0,0,1,368.826,106.51a81.286,81.286,0,0,1-5.555,13.614A82.228,82.228,0,0,1,441.686,202.371Z" transform="translate(0.435 0.007)" fill="#fff"/>
      <path id="Path_715" data-name="Path 715" d="M361.872,306.292a26.121,26.121,0,0,1-13.055,22.649l-.8.44h-.044c-.258.138-.522.271-.786.4l-.145.075A21.548,21.548,0,0,0,335.77,348.8a21.542,21.542,0,0,0-11.28-18.95l-.113-.057h-.057c-.245-.132-.5-.258-.755-.384l-.069-.031c-.264-.145-.529-.289-.786-.44a26.115,26.115,0,1,1,39.17-22.617Z" transform="translate(-114.563 -103.914)" fill="#e62323"/>
    </g>
  </g>
</svg>
