<svg xmlns="http://www.w3.org/2000/svg" width="93.381" height="80.539" viewBox="0 0 93.381 80.539">
  <g id="Layer_2" data-name="Layer 2" transform="translate(0.435 -19.993)">
    <g id="Layer_2-2" data-name="Layer 2" transform="translate(-0.435 19.993)">
      <path id="Path_714" data-name="Path 714" d="M92.946,42.737a17.389,17.389,0,0,1-30.123,11.85q.4-.565.772-1.157a20.244,20.244,0,0,0,1.993-4.238A11.877,11.877,0,1,0,76.158,30.876c-.2-.011-.4-.016-.6-.016a11.8,11.8,0,0,0-5.78,1.5l-.013.008q-.171.094-.339.2l-.027.016a11.935,11.935,0,0,0-3.811,3.7,11.444,11.444,0,0,0-.6,1.043,11.809,11.809,0,0,0-1.3,5.411,17.306,17.306,0,0,1-2.525,9.029c-.074.124-.151.246-.23.368h0a17.478,17.478,0,0,1-1.537,2.044c-.121.133-.242.272-.367.405a17.439,17.439,0,0,1-6.342,4.332h-.012c-.066.024-.133.049-.2.077L52.447,59a5.508,5.508,0,0,0-3.4,5.093V74.609a4.562,4.562,0,0,0,3.407,4.174h0a4.139,4.139,0,0,0,.417.086l8.053,1.662H31.647l8.074-1.668c.122-.02.243-.045.361-.074a4.555,4.555,0,0,0,3.439-4.416V64.1A11.025,11.025,0,0,1,50.45,53.861c.081-.028.162-.06.242-.093a11.877,11.877,0,0,0,4.538-3.222c.113-.133.222-.259.328-.392A11.874,11.874,0,0,0,52.31,32.5c-.057-.036-.116-.069-.175-.1a11.782,11.782,0,0,0-5.257-1.525q-.3-.016-.6-.016c-.2,0-.4,0-.594.015A11.788,11.788,0,0,0,40.5,32.359l-.015.009c-.108.058-.214.121-.319.185a11.929,11.929,0,0,0-3.854,3.729,11.44,11.44,0,0,0-.6,1.043,11.89,11.89,0,0,0,.6,11.869,11.618,11.618,0,0,0,1.021,1.351,11.861,11.861,0,0,0,6.192,3.747q.441.106.892.177a13.325,13.325,0,0,0-.892,1.032c-.141.181-.276.363-.408.55a13.888,13.888,0,0,0-1.746,3.374,17.459,17.459,0,0,1-9.728-7.283v-.008h0a17.314,17.314,0,0,1-2.757-9.4A11.878,11.878,0,0,0,23.027,32.49l-.034-.019-.125-.073a11.81,11.81,0,0,0-5.855-1.541c-.2,0-.4,0-.594.015A11.878,11.878,0,1,0,26.984,49.189a20.225,20.225,0,0,0,2.759,5.394,17.407,17.407,0,1,1-13.554-29.22,17.168,17.168,0,0,1-1.173-2.876,17.393,17.393,0,1,1,33.261,0c-.656-.064-1.329-.1-1.993-.1s-1.338.033-1.993.1a20.26,20.26,0,0,0-2.064.308,11.881,11.881,0,1,0-16.56,4.855l.078.045a17.514,17.514,0,0,1,5.9,5.642,17.514,17.514,0,0,1,5.8-5.581l.027-.015c.085-.048.169-.1.252-.147a17.293,17.293,0,0,1,7.744-2.228q.408-.02.821-.02t.824.02a17.305,17.305,0,0,1,7.833,2.284l.068.04a17.478,17.478,0,0,1,5.909,5.647,17.477,17.477,0,0,1,5.8-5.581l.023-.013c.085-.047.169-.1.251-.146A11.877,11.877,0,1,0,50.951,10.931a20.267,20.267,0,0,0-2.76-5.394A17.4,17.4,0,0,1,77.557,22.49a17.169,17.169,0,0,1-1.173,2.876A17.368,17.368,0,0,1,92.946,42.737Z" transform="translate(0.435 0.007)" fill="#fff"/>
      <path id="Path_715" data-name="Path 715" d="M320.676,285.715a5.517,5.517,0,0,1-2.757,4.784l-.169.093h-.009c-.054.029-.11.057-.166.084l-.031.016a4.551,4.551,0,0,0-2.381,4,4.55,4.55,0,0,0-2.383-4l-.024-.012h-.012c-.052-.028-.106-.055-.159-.081l-.015-.007c-.056-.031-.112-.061-.166-.093a5.516,5.516,0,1,1,8.273-4.777Z" transform="translate(-268.441 -242.97)" fill="#e62323"/>
    </g>
  </g>
</svg>
