<svg id="Layer_2" data-name="Layer 2" xmlns="http://www.w3.org/2000/svg" width="114.725" height="98.947" viewBox="0 0 114.725 98.947">
  <g id="Layer_2-2" data-name="Layer 2" transform="translate(0 0)">
    <path id="Path_50" data-name="Path 50" d="M114.29,52.507A21.363,21.363,0,0,1,77.282,67.066q.49-.694.949-1.422a24.872,24.872,0,0,0,2.449-5.206,14.592,14.592,0,1,0,12.985-22.5c-.243-.013-.49-.02-.736-.02a14.5,14.5,0,0,0-7.1,1.843l-.016.01q-.211.116-.416.24l-.033.02a14.663,14.663,0,0,0-4.682,4.55,14.062,14.062,0,0,0-.743,1.282,14.508,14.508,0,0,0-1.6,6.648,21.262,21.262,0,0,1-3.1,11.093c-.091.152-.186.3-.282.452h0a21.472,21.472,0,0,1-1.889,2.511c-.149.163-.3.335-.451.5a21.425,21.425,0,0,1-7.792,5.322h-.015c-.082.029-.163.06-.242.095l-.031.011a6.767,6.767,0,0,0-4.173,6.257V91.664a5.6,5.6,0,0,0,4.186,5.128h0a5.09,5.09,0,0,0,.513.106l9.893,2.042H38.98L48.9,96.891c.15-.024.3-.056.444-.091a5.6,5.6,0,0,0,4.225-5.425V78.757A13.545,13.545,0,0,1,62.08,66.173c.1-.034.2-.073.3-.114A14.591,14.591,0,0,0,67.952,62.1c.139-.163.273-.318.4-.482a14.588,14.588,0,0,0-3.99-21.683c-.07-.044-.142-.085-.215-.126a14.476,14.476,0,0,0-6.458-1.874q-.366-.02-.735-.02c-.245,0-.49,0-.73.018a14.482,14.482,0,0,0-6.367,1.824l-.018.011c-.132.072-.263.149-.392.227a14.655,14.655,0,0,0-4.734,4.581,14.055,14.055,0,0,0-.743,1.282,14.608,14.608,0,0,0,.743,14.582A14.274,14.274,0,0,0,45.97,62.1a14.572,14.572,0,0,0,7.608,4.6q.542.131,1.1.217a16.369,16.369,0,0,0-1.1,1.268c-.173.222-.34.446-.5.676a17.064,17.064,0,0,0-2.145,4.145A21.45,21.45,0,0,1,38.98,64.062v-.01h0A21.272,21.272,0,0,1,35.592,52.5a14.592,14.592,0,0,0-7.2-12.585l-.042-.023-.153-.09A14.51,14.51,0,0,0,21,37.911c-.245,0-.49,0-.73.018a14.593,14.593,0,1,0,12.98,22.5,24.847,24.847,0,0,0,3.389,6.626,21.386,21.386,0,1,1-16.652-35.9,21.093,21.093,0,0,1-1.442-3.533,21.368,21.368,0,1,1,40.864,0c-.806-.078-1.633-.119-2.449-.119s-1.644.041-2.449.119a24.891,24.891,0,0,0-2.535.379,14.6,14.6,0,1,0-20.345,5.965l.1.056a21.517,21.517,0,0,1,7.25,6.932A21.517,21.517,0,0,1,46.1,34.1l.033-.018c.1-.059.207-.118.31-.181a21.246,21.246,0,0,1,9.514-2.738q.5-.024,1.009-.024t1.012.024A21.26,21.26,0,0,1,67.6,33.972l.083.049a21.473,21.473,0,0,1,7.26,6.938A21.471,21.471,0,0,1,82.067,34.1l.028-.016c.1-.057.207-.118.309-.18A14.592,14.592,0,1,0,62.7,13.431,24.9,24.9,0,0,0,59.3,6.8,21.373,21.373,0,0,1,95.384,27.632a21.092,21.092,0,0,1-1.442,3.533A21.337,21.337,0,0,1,114.29,52.507Z" transform="translate(0.435 0.007)" fill="#0a0a0a"/>
    <path id="Path_51" data-name="Path 51" d="M323.2,286.974a6.778,6.778,0,0,1-3.387,5.877l-.207.114h-.011c-.067.036-.136.07-.2.1l-.038.02A5.591,5.591,0,0,0,316.424,298a5.59,5.59,0,0,0-2.927-4.917l-.029-.015h-.015c-.064-.034-.131-.067-.2-.1l-.018-.008c-.069-.038-.137-.075-.2-.114a6.777,6.777,0,1,1,10.164-5.869Z" transform="translate(-259.023 -234.459)" fill="#e62323"/>
  </g>
</svg>
