<svg xmlns="http://www.w3.org/2000/svg" xmlns:xlink="http://www.w3.org/1999/xlink" id="Layer_1" data-name="Layer 1" viewBox="42.19 34 70.49 64.78">
  <defs>
    <style>
      .cls-1 {
        fill: #fff;
      }

      .cls-2 {
        fill: none;
      }

      .cls-3 {
        clip-path: url(#clippath);
      }
    </style>
    <clipPath id="clippath">
      <rect class="cls-2" x="42" y="34" width="70.67" height="64.76"/>
    </clipPath>
  </defs>
  <g class="cls-3">
    <path id="Path_227" data-name="Path 227" class="cls-1" d="M77.42,37.09h.03c6.99.02,12.63,5.7,12.61,12.68,0,2.17-.57,4.31-1.64,6.2-2.63,4.62-1.02,10.5,3.6,13.14,1.45.83,3.09,1.26,4.76,1.26h.17c6.98.07,12.59,5.79,12.52,12.77-.07,6.9-5.65,12.47-12.55,12.52h-.04c-4.66-.01-8.93-2.58-11.12-6.69-1.68-3.09-4.92-5.02-8.44-5.03h-.03c-3.51,0-6.74,1.91-8.44,4.98-2.21,4.09-6.48,6.63-11.13,6.63h-.03c-6.98-.07-12.59-5.79-12.52-12.77.07-6.9,5.65-12.47,12.55-12.52h.27c5.32,0,9.63-4.32,9.63-9.63,0-1.64-.42-3.25-1.22-4.68-3.43-6.08-1.28-13.8,4.8-17.23,1.9-1.07,4.03-1.63,6.21-1.63M77.42,54.4c2.56,0,4.64-2.06,4.67-4.61,0-1.29-.54-2.52-1.47-3.41-.86-.82-2-1.28-3.18-1.28h-.01c-2.57-.08-4.71,1.94-4.79,4.51-.08,2.57,1.94,4.71,4.51,4.79.09,0,.18,0,.27,0h.01M77.35,81.36c5.25,0,9.51-4.24,9.51-9.49s-4.24-9.51-9.49-9.51h-.03c-5.25,0-9.51,4.24-9.51,9.49,0,5.25,4.24,9.51,9.49,9.51h.03M57.73,87.58c2.47,0,4.51-1.93,4.66-4.4-.06-1.21-.58-2.34-1.45-3.18-.86-.83-2-1.29-3.19-1.29h-.01c-2.45-.11-4.53,1.78-4.64,4.23-.11,2.45,1.78,4.53,4.23,4.64.13,0,.27,0,.4,0h.01M96.92,87.69c2.47,0,4.52-1.93,4.66-4.4-.06-1.21-.58-2.34-1.45-3.18-.86-.83-2-1.29-3.19-1.29h-.01c-2.45-.12-4.53,1.77-4.65,4.22s1.77,4.53,4.22,4.65c.14,0,.28,0,.42,0h.01M77.42,34h0c-8.69,0-15.74,7.05-15.74,15.75,0,2.71.7,5.37,2.03,7.73,1.75,3.16.61,7.14-2.55,8.89-.97.54-2.06.82-3.17.82h-.26c-8.69.11-15.65,7.24-15.54,15.94.11,8.52,6.98,15.41,15.5,15.54h.04c5.77,0,11.09-3.16,13.84-8.24,1.15-2.08,3.34-3.37,5.72-3.38h.02c2.39,0,4.58,1.31,5.73,3.41,2.73,5.11,8.05,8.3,13.84,8.32h.04c8.69.01,15.75-7.03,15.76-15.72.01-8.69-7.03-15.75-15.72-15.76h-.18c-3.61,0-6.54-2.93-6.54-6.54,0-1.13.3-2.25.86-3.23h0c4.29-7.56,1.64-17.17-5.92-21.46-2.36-1.34-5.02-2.04-7.72-2.05h-.04ZM75.84,49.77c.01-.87.71-1.57,1.57-1.59.4,0,.78.15,1.06.43.32.3.5.72.51,1.16-.03.85-.72,1.52-1.57,1.53h0c-.85,0-1.54-.68-1.57-1.53M77.36,78.28h-.02c-3.54,0-6.4-2.88-6.4-6.41,0-3.54,2.88-6.4,6.41-6.4h.02c3.54,0,6.4,2.88,6.4,6.41,0,3.54-2.88,6.4-6.41,6.4M56.18,83.18c.11-.78.76-1.36,1.54-1.38.4,0,.78.15,1.07.43.26.25.43.58.48.94-.13.76-.78,1.31-1.55,1.31h0c-.77,0-1.42-.56-1.55-1.31M95.37,83.28c.11-.77.77-1.35,1.55-1.37.4,0,.78.15,1.07.43.26.25.43.58.48.94-.13.76-.78,1.31-1.55,1.31h0c-.77,0-1.42-.56-1.55-1.31"/>
  </g>
</svg>