<svg xmlns="http://www.w3.org/2000/svg" xmlns:xlink="http://www.w3.org/1999/xlink" width="155" height="175" viewBox="0 0 155 175">
  <defs>
    <clipPath id="clip-path">
      <rect id="Rectangle_197" data-name="Rectangle 197" width="70.667" height="64.764" fill="#ffaf61"/>
    </clipPath>
  </defs>
  <g id="Group_1010" data-name="Group 1010" transform="translate(-435 -26)">
    <rect id="Rectangle_35" data-name="Rectangle 35" width="155" height="175" rx="40" transform="translate(435 26)"/>
    <text id="Play" transform="translate(515 171)" fill="#ffaf61" font-size="28" font-family="Inter-Medium, Inter" font-weight="500"><tspan x="-28" y="0">Play</tspan></text>
    <g id="Group_474" data-name="Group 474" transform="translate(477 60)" clip-path="url(#clip-path)">
      <path id="Path_227" data-name="Path 227" d="M35.424,3.093h.035A12.648,12.648,0,0,1,46.426,21.977a9.632,9.632,0,0,0,8.365,14.4h.172a12.646,12.646,0,0,1-.034,25.291h-.036a12.643,12.643,0,0,1-11.124-6.693,9.629,9.629,0,0,0-8.438-5.029H35.3a9.629,9.629,0,0,0-8.439,4.983,12.643,12.643,0,0,1-11.126,6.632H15.7a12.646,12.646,0,0,1,.034-25.291h.036l.125,0H16a9.631,9.631,0,0,0,8.412-14.315A12.648,12.648,0,0,1,35.424,3.093M35.415,20.4a4.669,4.669,0,0,0,4.668-4.612,4.743,4.743,0,0,0-1.473-3.41,4.62,4.62,0,0,0-3.182-1.28h-.013a4.652,4.652,0,1,0-.013,9.3h.013m-.062,26.967a9.5,9.5,0,0,0,.026-19h-.027a9.5,9.5,0,0,0-.026,19h.027M15.729,53.577a4.667,4.667,0,0,0,4.656-4.4A4.737,4.737,0,0,0,18.933,46a4.619,4.619,0,0,0-3.192-1.29h-.013a4.439,4.439,0,1,0-.013,8.869h.013m39.189.107a4.666,4.666,0,0,0,4.656-4.4,4.738,4.738,0,0,0-1.452-3.179,4.618,4.618,0,0,0-3.192-1.29h-.013a4.439,4.439,0,1,0-.012,8.868h.013M35.424,0h0A15.742,15.742,0,0,0,21.715,23.474,6.537,6.537,0,0,1,16,33.181H15.91l-.127,0h-.045A15.739,15.739,0,0,0,15.7,64.656h.044a15.735,15.735,0,0,0,13.838-8.238A6.545,6.545,0,0,1,35.3,53.042h.016a6.543,6.543,0,0,1,5.727,3.406,15.729,15.729,0,0,0,13.838,8.316h.044a15.739,15.739,0,0,0,.042-31.478h-.18a6.539,6.539,0,0,1-5.679-9.775l0,0,0,0A15.74,15.74,0,0,0,35.467,0ZM33.841,15.774a1.611,1.611,0,0,1,1.574-1.585,1.524,1.524,0,0,1,1.063.429,1.647,1.647,0,0,1,.511,1.162,1.582,1.582,0,0,1-1.574,1.526h0a1.581,1.581,0,0,1-1.57-1.531m1.512,28.5h-.016a6.407,6.407,0,0,1,.015-12.814h.016a6.407,6.407,0,0,1-.015,12.814m-21.173,4.9A1.592,1.592,0,0,1,15.728,47.8a1.522,1.522,0,0,1,1.066.431,1.634,1.634,0,0,1,.484.936,1.573,1.573,0,0,1-1.549,1.315h0a1.574,1.574,0,0,1-1.546-1.315m39.189.108a1.593,1.593,0,0,1,1.549-1.366,1.522,1.522,0,0,1,1.066.431,1.636,1.636,0,0,1,.484.936,1.573,1.573,0,0,1-1.549,1.314h0a1.574,1.574,0,0,1-1.546-1.315" transform="translate(0 0)" fill="#ffaf61"/>
    </g>
  </g>
</svg>
