<svg xmlns="http://www.w3.org/2000/svg" xmlns:xlink="http://www.w3.org/1999/xlink" width="155" height="175" viewBox="0 0 155 175">
  <defs>
    <clipPath id="clip-path">
      <rect id="Rectangle_187" data-name="Rectangle 187" width="74" height="73.984" fill="#fff"/>
    </clipPath>
  </defs>
  <g id="Group_1008" data-name="Group 1008" transform="translate(-28 -26)">
    <rect id="Rectangle_33" data-name="Rectangle 33" width="155" height="175" rx="40" transform="translate(28 26)" fill="#060402" opacity="0.62"/>
    <text id="Ref" transform="translate(107 171)" fill="#fff" font-size="28" font-family="Inter-Regular, Inter"><tspan x="-22" y="0">Ref</tspan></text>
    <g id="Group_455" data-name="Group 455" transform="translate(69 55)" clip-path="url(#clip-path)">
      <path id="Path_208" data-name="Path 208" d="M37,73.984H2.412c-1.852,0-2.4-.552-2.4-2.417Q.016,54.643,0,37.719a2.887,2.887,0,0,1,1.207-2.537c1.772-1.35,3.47-2.8,5.237-4.153a1.531,1.531,0,0,0,.642-1.388q-.026-13.58-.013-27.16C7.073.5,7.574,0,9.563,0H64.538c1.87,0,2.393.527,2.393,2.41q0,13.621-.014,27.243a1.533,1.533,0,0,0,.66,1.379c1.808,1.394,3.563,2.856,5.367,4.254A2.553,2.553,0,0,1,74,37.479q-.021,17.171-.011,34.342c0,1.518-.643,2.161-2.157,2.162q-17.417,0-34.834,0M10.618,3.556c-.014.281-.033.5-.033.714q0,17.625-.018,35.249a1.1,1.1,0,0,0,.651,1.082q12.56,7.515,25.1,15.066a1.165,1.165,0,0,0,1.4-.01q12.5-7.536,25.033-15.021a1.228,1.228,0,0,0,.684-1.233q-.028-17.46-.014-34.919V3.556Zm59.833,36.6c-.355.2-.593.324-.824.462Q54.033,49.971,38.449,59.337a2.477,2.477,0,0,1-2.888,0Q19.994,49.944,4.386,40.62c-.246-.147-.5-.273-.805-.436V70.4h66.87Zm-63.437-2.1V35.073l-2.149,1.7,2.149,1.28m59.981-2.974v2.98l2.152-1.288-2.152-1.692" transform="translate(0 0)" fill="#fff"/>
      <path id="Path_209" data-name="Path 209" d="M146.21,87.866c-.222-.2-.363-.334-.506-.463a8.8,8.8,0,0,0-12.131,12.752c3.709,3.6,7.5,7.124,11.261,10.671a1.792,1.792,0,0,0,2.77-.008c1.133-1.043,2.242-2.113,3.361-3.172,2.637-2.5,5.3-4.963,7.9-7.5a8.8,8.8,0,0,0-8.432-14.825,9.322,9.322,0,0,0-4.226,2.542" transform="translate(-109.21 -70.953)" fill="none"/>
      <path id="Path_210" data-name="Path 210" d="M146.21,87.866a9.322,9.322,0,0,1,4.226-2.542,8.8,8.8,0,0,1,8.432,14.825c-2.6,2.535-5.265,5-7.9,7.5-1.119,1.059-2.228,2.128-3.361,3.171a1.793,1.793,0,0,1-2.77.008c-3.764-3.547-7.552-7.068-11.261-10.671A8.8,8.8,0,0,1,145.7,87.4c.142.129.283.259.506.463m-.025,19.386c.25-.214.442-.363.618-.53q4.7-4.452,9.4-8.91a5.3,5.3,0,0,0,.3-7.659,5.418,5.418,0,0,0-7.639.073c-.455.44-.886.9-1.347,1.337a1.755,1.755,0,0,1-2.635,0c-.581-.546-1.115-1.143-1.713-1.669a5.249,5.249,0,0,0-7.242.224,5.148,5.148,0,0,0-.1,7.291c3.363,3.323,6.848,6.524,10.351,9.841" transform="translate(-109.21 -70.953)" fill="#fff"/>
    </g>
  </g>
</svg>
