<svg xmlns="http://www.w3.org/2000/svg" xmlns:xlink="http://www.w3.org/1999/xlink" id="Layer_1" data-name="Layer 1" viewBox="40.99 28.99 74.03 73.99">
  <defs>
    <style>
      .cls-1 {
        fill: #fff;
      }

      .cls-2 {
        fill: none;
      }

      .cls-3 {
        clip-path: url(#clippath);
      }
    </style>
    <clipPath id="clippath">
      <rect class="cls-2" x="41" y="29" width="74" height="73.98"/>
    </clipPath>
  </defs>
  <g class="cls-3">
    <path id="Path_208" data-name="Path 208" class="cls-1" d="M78,102.98h-34.59c-1.85,0-2.4-.55-2.4-2.42,0-11.28,0-22.57-.01-33.85-.06-1,.39-1.96,1.21-2.54,1.77-1.35,3.47-2.8,5.24-4.15.45-.32.69-.84.64-1.39-.02-9.05-.02-18.11-.01-27.16,0-1.98.5-2.48,2.49-2.48h54.98c1.87,0,2.39.53,2.39,2.41,0,9.08,0,18.16-.01,27.24-.04.54.21,1.07.66,1.38,1.81,1.39,3.56,2.86,5.37,4.25.7.51,1.1,1.33,1.06,2.19-.01,11.45-.02,22.89-.01,34.34,0,1.52-.64,2.16-2.16,2.16h-34.83M51.62,32.56c-.01.28-.03.5-.03.71,0,11.75,0,23.5-.02,35.25-.03.46.23.89.65,1.08,8.37,5.01,16.74,10.03,25.1,15.07.42.31.99.3,1.4,0,8.33-5.02,16.68-10.03,25.03-15.02.46-.23.74-.72.68-1.23-.02-11.64-.02-23.28-.01-34.92v-.93h-52.8ZM111.45,69.16c-.36.2-.59.32-.82.46-10.4,6.24-20.79,12.48-31.18,18.72-.86.62-2.02.62-2.89,0-10.38-6.26-20.77-12.5-31.18-18.72-.25-.15-.5-.27-.81-.44v30.22h66.87v-30.24ZM48.01,67.06v-2.98l-2.15,1.7,2.15,1.28M108,64.08v2.98l2.15-1.29-2.15-1.69"/>
    <path id="Path_209" data-name="Path 209" class="cls-2" d="M78,45.91c-.22-.2-.36-.33-.51-.46-3.52-3.35-9.09-3.21-12.44.31s-3.21,9.09.31,12.44c3.71,3.6,7.5,7.12,11.26,10.67.63.76,1.76.87,2.52.24.09-.07.17-.16.25-.25,1.13-1.04,2.24-2.11,3.36-3.17,2.64-2.5,5.3-4.96,7.9-7.5,3.5-3.37,3.61-8.94.23-12.44-2.23-2.32-5.56-3.23-8.67-2.38-1.61.45-3.07,1.33-4.23,2.54"/>
    <path id="Path_210" data-name="Path 210" class="cls-1" d="M78,45.91c1.15-1.21,2.61-2.09,4.23-2.54,4.69-1.29,9.53,1.47,10.81,6.16.85,3.11-.06,6.43-2.38,8.67-2.6,2.54-5.26,5-7.9,7.5-1.12,1.06-2.23,2.13-3.36,3.17-.63.77-1.76.88-2.52.25-.09-.07-.17-.16-.25-.25-3.76-3.55-7.55-7.07-11.26-10.67-3.49-3.38-3.58-8.95-.2-12.44,3.34-3.44,8.81-3.58,12.32-.31.14.13.28.26.51.46M77.97,65.3c.25-.21.44-.36.62-.53,3.13-2.97,6.27-5.94,9.4-8.91,2.19-1.94,2.4-5.29.46-7.48-.05-.06-.11-.12-.16-.18-2.13-2.08-5.55-2.05-7.64.07-.46.44-.89.9-1.35,1.34-.64.73-1.75.8-2.48.16-.06-.05-.11-.1-.16-.16-.58-.55-1.12-1.14-1.71-1.67-2.09-1.87-5.27-1.77-7.24.22-2.04,1.98-2.09,5.24-.11,7.28,0,0,0,0,.01.01,3.36,3.32,6.85,6.52,10.35,9.84"/>
  </g>
</svg>