<svg xmlns="http://www.w3.org/2000/svg" width="43" height="49.143" viewBox="0 0 43 49.143">
  <path id="share-alt" d="M43,39.929a9.214,9.214,0,1,1-17.734-3.514L16.1,30.689a9.214,9.214,0,1,1,0-12.234l9.161-5.726a9.227,9.227,0,1,1,1.63,2.6l-9.162,5.726a9.234,9.234,0,0,1,0,7.028L26.9,33.811A9.214,9.214,0,0,1,43,39.929ZM33.786,3.071a6.143,6.143,0,1,0,6.143,6.143,6.15,6.15,0,0,0-6.143-6.143M9.214,18.429a6.143,6.143,0,1,0,6.143,6.143,6.15,6.15,0,0,0-6.143-6.143M33.786,33.786a6.143,6.143,0,1,0,6.143,6.143,6.15,6.15,0,0,0-6.143-6.143" fill="#fff"/>
</svg>
