<svg xmlns="http://www.w3.org/2000/svg" width="72.02" height="72.02" viewBox="0 0 72.02 72.02">
  <g id="Group_531" data-name="Group 531" transform="translate(-615 -442)">
    <path id="redo" d="M78.277,8H76.825a1.742,1.742,0,0,0-1.742,1.742V25.805A36.012,36.012,0,1,0,68.139,70.74a1.746,1.746,0,0,0,.07-2.531l-1.026-1.026a1.74,1.74,0,0,0-2.393-.066A31.072,31.072,0,1,1,71.64,29.78H55.045A1.742,1.742,0,0,0,53.3,31.522v1.452a1.742,1.742,0,0,0,1.742,1.742H78.277a1.742,1.742,0,0,0,1.742-1.742V9.742A1.742,1.742,0,0,0,78.277,8Z" transform="translate(607 434)" fill="#fff"/>
    <g id="spark-icon" transform="matrix(0.998, 0.07, -0.07, 0.998, 638.072, 462.758)">
      <path id="Path_228" data-name="Path 228" d="M9.441,18.031,0,17.143,7.827,0h10.7L12.461,9.835l10.915,1.208L3.339,35.1Z" transform="translate(0 0)" fill="#fff" fill-rule="evenodd"/>
    </g>
  </g>
</svg>
