<?xml version="1.0" encoding="UTF-8"?>
<svg id="Layer_1" data-name="Layer 1" xmlns="http://www.w3.org/2000/svg" viewBox="0 0 208 208">
  <defs>
    <style>
      .cls-1, .cls-2 {
        fill: #fff;
      }

      .cls-2 {
        fill-rule: evenodd;
      }

      .cls-3 {
        fill: #0e0b0a;
      }

      .cls-4 {
        fill: none;
        stroke: #707070;
      }
    </style>
  </defs>
  <rect class="cls-3" x="0" y="0" width="208" height="208" rx="82" ry="82"/>
  <rect class="cls-4" x=".5" y=".5" width="207" height="207" rx="81.5" ry="81.5"/>
  <g id="Group_531" data-name="Group 531">
    <path id="redo" class="cls-1" d="M156.08,49.44h-2.27c-1.52,0-2.58,1.21-2.58,2.58v24.4c-15.31-26.07-48.65-34.71-74.72-19.55-26.07,15.31-34.71,48.65-19.55,74.72,15.31,26.07,48.65,34.71,74.72,19.55,3.18-1.82,6.21-4.09,8.94-6.52,1.06-.91,1.21-2.58.15-3.79h0l-1.52-1.52c-1.06-1.06-2.58-1.06-3.64,0-19.4,17.43-49.1,15.76-66.53-3.49-17.43-19.4-15.76-49.1,3.49-66.53,19.4-17.43,49.1-15.76,66.53,3.49,2.73,3.03,5,6.37,6.82,9.85h-25.16c-1.52,0-2.58,1.21-2.58,2.58h0v2.27c0,1.52,1.21,2.58,2.58,2.58h35.16c1.52,0,2.58-1.21,2.58-2.58v-35.31c0-1.52-1.21-2.58-2.58-2.58h.15v-.15Z"/>
    <g id="spark-icon">
      <path id="Path_228" data-name="Path 228" class="cls-2" d="M96.97,109.3l-14.25-2.27,13.64-25.16,16.22,1.06-10.15,14.25,16.37,3.03-32.89,34.25,11.06-25.16h0Z"/>
    </g>
  </g>
</svg>