<svg xmlns="http://www.w3.org/2000/svg" xmlns:xlink="http://www.w3.org/1999/xlink" width="156" height="175" viewBox="0 0 156 175">
  <defs>
    <clipPath id="clip-path">
      <rect id="Rectangle_196" data-name="Rectangle 196" width="75.16" height="74.236" fill="#fff"/>
    </clipPath>
  </defs>
  <g id="Group_1011" data-name="Group 1011" transform="translate(-638 -26)">
    <rect id="Rectangle_36" data-name="Rectangle 36" width="156" height="175" rx="40" transform="translate(638 26)" fill="#060402" opacity="0.62"/>
    <text id="Shop" transform="translate(717 171)" fill="#fff" font-size="28" font-family="Inter-Regular, Inter"><tspan x="-34" y="0">Shop</tspan></text>
    <g id="Group_470" data-name="Group 470" transform="translate(678 55)" clip-path="url(#clip-path)">
      <path id="Path_222" data-name="Path 222" d="M163.7,132.709H141.541a3.414,3.414,0,0,0-3.41,3.41v22.164a3.414,3.414,0,0,0,3.41,3.41H163.7a3.414,3.414,0,0,0,3.41-3.41V136.119a3.414,3.414,0,0,0-3.41-3.41m0,25.574H141.541V136.119H163.7l0,22.164h0" transform="translate(-114.581 -110.083)" fill="#fff"/>
      <path id="Path_223" data-name="Path 223" d="M73.455,48.318H65.321V29.512h8.134a1.7,1.7,0,0,0,0-3.41H65.321V16.659a6.827,6.827,0,0,0-6.82-6.82H50.855V1.7a1.7,1.7,0,0,0-3.41,0V9.839H28.639V1.7a1.7,1.7,0,1,0-3.41,0V9.839H17.583a6.827,6.827,0,0,0-6.82,6.82V26.1H1.7a1.7,1.7,0,0,0,0,3.41h9.058V48.318H1.7a1.7,1.7,0,1,0,0,3.41h9.058v5.849a6.827,6.827,0,0,0,6.82,6.82h7.646v8.134a1.7,1.7,0,0,0,3.41,0V64.4H47.445v8.134a1.7,1.7,0,0,0,3.41,0V64.4H58.5a6.827,6.827,0,0,0,6.82-6.82V51.728h8.134a1.7,1.7,0,0,0,0-3.41M61.911,57.577a3.414,3.414,0,0,1-3.41,3.41H17.583a3.414,3.414,0,0,1-3.41-3.41V16.659a3.414,3.414,0,0,1,3.41-3.41H58.5a3.414,3.414,0,0,1,3.41,3.41Z" fill="#fff"/>
    </g>
  </g>
</svg>
