<svg xmlns="http://www.w3.org/2000/svg" width="73" height="85.528" viewBox="0 0 73 85.528">
  <path id="arrow-alt-from-bottom" d="M70.719,115.628H2.281A2.288,2.288,0,0,1,0,113.347v-1.521a2.288,2.288,0,0,1,2.281-2.281H70.719A2.288,2.288,0,0,1,73,111.826v1.521A2.288,2.288,0,0,1,70.719,115.628ZM29.1,97.378H43.876a3.051,3.051,0,0,0,3.042-3.042V66.961H64.769a1.519,1.519,0,0,0,1.084-2.585l-27.2-27.3a3.041,3.041,0,0,0-4.315,0L7.148,64.376a1.515,1.515,0,0,0,1.084,2.585H26.082V94.336A3.022,3.022,0,0,0,29.1,97.378m0,6.083a9.127,9.127,0,0,1-9.125-9.125V73.045H8.232a7.6,7.6,0,0,1-5.38-12.965l27.185-27.3a9.133,9.133,0,0,1,12.927,0l27.2,27.28a7.6,7.6,0,0,1-5.38,12.965H53.02V94.317a9.127,9.127,0,0,1-9.125,9.125H29.1Z" transform="translate(0 -30.1)" fill="#fff"/>
</svg>
