<svg xmlns="http://www.w3.org/2000/svg" width="80.492" height="80.508" viewBox="0 0 80.492 80.508">
  <path id="thunderstorm" d="M57.854,40.246h-11.6l3.93-11.775a2.527,2.527,0,0,0-.346-2.264,2.489,2.489,0,0,0-2.044-1.038H30.185A2.54,2.54,0,0,0,27.7,27.229L22.67,54.9a2.5,2.5,0,0,0,.55,2.059,2.552,2.552,0,0,0,1.934.912H37.731V77.992a2.523,2.523,0,0,0,1.934,2.452,2.442,2.442,0,0,0,.582.063,2.493,2.493,0,0,0,2.248-1.383L60.1,43.909a2.536,2.536,0,0,0-2.248-3.663ZM42.761,67.318V55.338a2.523,2.523,0,0,0-2.515-2.515H28.172l4.119-22.638H44.318L40.388,41.96a2.527,2.527,0,0,0,.346,2.264,2.489,2.489,0,0,0,2.044,1.038H53.8ZM65.353,17.655A13.864,13.864,0,0,0,51.565,5.031,13.59,13.59,0,0,0,43.83,7.42,18.8,18.8,0,0,0,10.062,18.865v.063A16.312,16.312,0,0,0,16.35,50.308h2.044l.912-5.031H16.35a11.29,11.29,0,0,1-2.94-22.2l2.091-.566-.314-2.7a6.391,6.391,0,0,1-.094-.943,13.78,13.78,0,0,1,25.971-6.477L42.73,15.5l2.39-2.594a8.779,8.779,0,0,1,15.249,5.958,9.792,9.792,0,0,1-.126,1.085l-.393,3.144,3.694-.377a3.66,3.66,0,0,1,.6-.063,11.293,11.293,0,0,1,.786,22.56,7.488,7.488,0,0,1-.33.943l-2.075,4.15h1.619a16.349,16.349,0,0,0,1.211-32.653Z" fill="#fff"/>
</svg>
