<?xml version="1.0" encoding="UTF-8"?>
<svg id="Layer_1" data-name="Layer 1" xmlns="http://www.w3.org/2000/svg" viewBox="0 0 208 208">
  <defs>
    <style>
      .cls-1 {
        fill: #fff;
      }

      .cls-2 {
        fill: #0e0b0a;
      }

      .cls-3 {
        fill: none;
        stroke: #707070;
      }
    </style>
  </defs>
  <rect class="cls-2" x="0" y="0" width="208" height="208" rx="82" ry="82"/>
  <rect class="cls-3" x=".5" y=".5" width="207" height="207" rx="81.5" ry="81.5"/>
  <path id="arrow-alt-from-bottom" class="cls-1" d="M147.67,158.59H60.33c-1.66,0-2.94-1.28-2.94-2.94v-1.92c0-1.66,1.28-2.94,2.94-2.94h87.35c1.66,0,2.94,1.28,2.94,2.94v1.92c0,1.66-1.28,2.94-2.94,2.94ZM94.55,135.35h18.9c2.17,0,3.83-1.79,3.83-3.83v-34.99h22.86c1.02,0,1.92-.89,1.92-1.92s-.26-1.02-.51-1.4l-34.74-34.86c-1.53-1.53-3.96-1.53-5.49,0h0l-34.86,34.86c-.77.77-.77,2.04,0,2.68.38.38.89.51,1.4.51h22.86v34.99c0,2.17,1.66,3.83,3.83,3.83h0M94.55,143.01c-6.39,0-11.62-5.24-11.62-11.62v-27.2h-14.94c-5.36,0-9.71-4.34-9.71-9.71s1.02-4.98,2.81-6.9l34.61-34.74c4.6-4.6,11.88-4.6,16.47,0h0l34.74,34.86c3.83,3.83,3.83,9.96,0,13.66-1.79,1.79-4.34,2.81-6.9,2.81h-15.07v27.2c0,6.39-5.24,11.62-11.62,11.62h-18.9.13Z"/>
</svg>