<svg xmlns="http://www.w3.org/2000/svg" xmlns:xlink="http://www.w3.org/1999/xlink" id="Layer_1" data-name="Layer 1" viewBox="39.51 29.01 75.16 74.23">
  <defs>
    <style>
      .cls-1 {
        fill: #fff;
      }

      .cls-2 {
        fill: none;
      }

      .cls-3 {
        clip-path: url(#clippath);
      }
    </style>
    <clipPath id="clippath">
      <rect class="cls-2" x="39.5" y="29" width="75.16" height="74.24"/>
    </clipPath>
  </defs>
  <g class="cls-3">
    <path id="Path_222" data-name="Path 222" class="cls-1" d="M88.62,51.63h-22.16c-1.88,0-3.41,1.53-3.41,3.41v22.16c0,1.88,1.53,3.41,3.41,3.41h22.16c1.88,0,3.41-1.53,3.41-3.41v-22.16c0-1.88-1.53-3.41-3.41-3.41M88.62,77.2h-22.16v-22.16h22.16v22.16h0"/>
    <path id="Path_223" data-name="Path 223" class="cls-1" d="M112.96,77.32h-8.13v-18.81h8.13c.94,0,1.71-.76,1.71-1.7s-.76-1.7-1.71-1.7h-8.13v-9.44c0-3.76-3.06-6.82-6.82-6.82h-7.65v-8.14c0-.94-.76-1.7-1.7-1.7s-1.71.76-1.71,1.7v8.14h-18.81v-8.14c0-.94-.76-1.7-1.7-1.7s-1.7.76-1.7,1.7v8.14h-7.65c-3.76,0-6.82,3.06-6.82,6.82v9.44h-9.06c-.94,0-1.7.76-1.7,1.7s.76,1.7,1.7,1.7h9.06v18.81h-9.06c-.94,0-1.7.76-1.7,1.71s.76,1.7,1.7,1.7h9.06v5.85c0,3.76,3.06,6.82,6.82,6.82h7.65v8.13c0,.94.76,1.71,1.7,1.71s1.7-.76,1.7-1.71v-8.13h18.81v8.13c0,.94.76,1.71,1.71,1.71s1.7-.76,1.7-1.71v-8.13h7.65c3.76,0,6.82-3.06,6.82-6.82v-5.85h8.13c.94,0,1.71-.76,1.71-1.7s-.76-1.71-1.71-1.71h0M101.41,86.58c0,1.88-1.53,3.41-3.41,3.41h-40.92c-1.88,0-3.41-1.53-3.41-3.41v-40.92c0-1.88,1.53-3.41,3.41-3.41h40.92c1.88,0,3.41,1.53,3.41,3.41v40.92Z"/>
  </g>
</svg>