<?xml version="1.0" encoding="UTF-8"?>
<svg id="Layer_1" data-name="Layer 1" xmlns="http://www.w3.org/2000/svg" xmlns:xlink="http://www.w3.org/1999/xlink" viewBox="0 0 208 208">
  <defs>
    <style>
      .cls-1 {
        stroke: #fff;
        stroke-width: 3.5px;
      }

      .cls-1, .cls-2, .cls-3 {
        fill: none;
      }

      .cls-4 {
        fill: #fff;
      }

      .cls-5 {
        fill: #0e0b0a;
      }

      .cls-6 {
        clip-path: url(#clippath);
      }

      .cls-3 {
        stroke: #707070;
      }
    </style>
    <clipPath id="clippath">
      <rect class="cls-2" x="43.16" y="48.29" width="121.68" height="111.91"/>
    </clipPath>
  </defs>
  <rect class="cls-5" y="0" width="208" height="208" rx="82" ry="82"/>
  <rect class="cls-3" x=".5" y=".5" width="207" height="207" rx="81.5" ry="81.5"/>
  <g id="Group_990" data-name="Group 990">
    <g id="Group_989" data-name="Group 989">
      <g class="cls-6">
        <g id="Group_988" data-name="Group 988">
          <g id="Path_687" data-name="Path 687">
            <path class="cls-2" d="M141.38,114.59h-.29c-11.8,0-21.28-9.47-21.28-21.28s1.02-7.43,2.91-10.64v-.29c3.93-6.56,3.93-14.72.15-21.28v-.29c-4.08-6.56-11.07-10.64-18.65-10.64h-.44c-7.58,0-14.57,4.08-18.51,10.64v.29c-4.08,6.56-4.08,14.72-.15,21.28v.29c3.93,6.56,3.93,14.72.15,21.28v.29c-3.93,6.56-10.93,10.64-18.65,10.64h-.15c-7.58,0-14.57,4.08-18.51,10.64v.29c-4.08,6.56-4.08,14.72-.15,21.28v.29c4.08,6.56,11.07,10.64,18.65,10.64h.44c7.58,0,14.57-4.08,18.51-10.64v-.29c4.08-6.56,11.07-10.64,18.65-10.64h0c7.58,0,14.57,4.08,18.51,10.64h0c3.79,6.7,10.78,10.78,18.51,10.78h.44c7.58,0,14.57-4.08,18.51-10.64v-.29c4.08-6.56,4.08-14.72.15-21.28v-.29c-4.08-6.56-11.07-10.64-18.65-10.64h-.15v-.15Z"/>
            <path class="cls-4" d="M66.91,153.06c5.83,0,11.07-3.06,13.99-8.16v-.29c4.95-8.16,13.7-13.26,23.02-13.26h0c9.47,0,18.22,5.1,22.88,13.26h0c2.91,5.1,8.31,8.16,13.99,8.16h.44c5.83,0,11.07-3.06,13.99-8.16v-.29c3.06-4.95,3.06-11.22.15-16.17v-.29c-3.06-4.95-8.45-8.16-14.28-8.16h-.29c-9.47,0-18.22-5.1-22.88-13.26-4.66-8.16-4.66-18.22,0-26.38v-.29c3.06-4.95,3.06-11.22.15-16.17v-.29c-3.06-4.95-8.45-8.16-14.28-8.16h-.44c-5.83,0-11.07,3.06-13.99,8.16v.29c-3.06,4.95-3.06,11.22-.15,16.17v.29c4.81,8.16,4.81,18.22.15,26.38v.29c-4.81,8.16-13.55,13.26-23.02,13.26h-.15c-5.83,0-11.07,3.06-13.99,8.16v.29c-3.06,4.95-3.06,11.22-.15,16.17v.29c3.06,4.95,8.45,8.16,14.28,8.16h.44M66.91,158.16h-.44c-7.58,0-14.57-4.08-18.51-10.64v-.29c-4.08-6.56-4.08-14.72-.15-21.28v-.29c4.08-6.56,11.07-10.64,18.65-10.64h.15c7.58,0,14.57-4.08,18.51-10.64v-.29c3.93-6.56,3.93-14.72.15-21.28v-.29c-3.93-6.56-3.93-14.72-.15-21.28v-.29c4.08-6.56,11.07-10.64,18.65-10.64h.44c7.58,0,14.57,4.08,18.51,10.64v.29c4.08,6.56,4.08,14.72.15,21.28v.29c-3.93,6.56-3.93,14.72-.15,21.28,3.79,6.56,10.78,10.64,18.51,10.64h.29c7.58,0,14.57,4.08,18.51,10.64v.29c4.08,6.56,4.08,14.72.15,21.28v.29c-4.08,6.56-11.07,10.64-18.65,10.64h-.44c-7.58,0-14.57-4.08-18.51-10.64h0c-3.79-6.7-10.78-10.78-18.51-10.78h0c-7.58,0-14.57,4.08-18.51,10.64v.29c-4.08,6.56-11.07,10.64-18.65,10.64h0v.15Z"/>
          </g>
        </g>
      </g>
    </g>
    <circle id="Ellipse_36" data-name="Ellipse 36" class="cls-4" cx="104.36" cy="112.99" r="11.66"/>
    <g id="Ellipse_37" data-name="Ellipse 37">
      <circle class="cls-2" cx="66.48" cy="136.3" r="11.66"/>
      <circle class="cls-1" cx="66.48" cy="136.3" r="9.03"/>
    </g>
    <g id="Ellipse_38" data-name="Ellipse 38">
      <circle class="cls-2" cx="104.36" cy="72.18" r="11.66"/>
      <circle class="cls-1" cx="104.36" cy="72.18" r="9.03"/>
    </g>
    <g id="Ellipse_39" data-name="Ellipse 39">
      <circle class="cls-2" cx="142.25" cy="136.3" r="11.66"/>
      <circle class="cls-1" cx="142.25" cy="136.3" r="9.03"/>
    </g>
  </g>
</svg>