<svg xmlns="http://www.w3.org/2000/svg" width="67.999" height="68.019" viewBox="0 0 67.999 68.019">
  <path id="rocket" d="M66.675,2.537a1.586,1.586,0,0,0-1.169-1.169A36.385,36.385,0,0,0,54.214,0C45.1,0,37.2,5.964,31.127,12.753H14.19a4.217,4.217,0,0,0-3.666,2.112L.6,31.868a4.253,4.253,0,0,0,3.666,6.39H15.252c-1.142,2.537-1.9,4.45-2.471,5.925a1.582,1.582,0,0,0,.359,1.7l8.993,8.993a1.588,1.588,0,0,0,1.7.359c1.488-.571,3.387-1.328,5.925-2.471v11a4.244,4.244,0,0,0,6.39,3.666l17-9.923a4.261,4.261,0,0,0,2.112-3.666V36.9c6.788-6.071,12.753-13.975,12.753-23.087A36.142,36.142,0,0,0,66.675,2.537ZM4.267,34.007,14.19,17H27.62a103.865,103.865,0,0,0-10.375,17ZM34.023,63.763V50.785a102.95,102.95,0,0,0,17-10.375V53.84ZM23.914,50.652l-6.522-6.522C23.608,28.68,37.716,4.251,54.228,4.251a31.417,31.417,0,0,1,8.7.863,31.843,31.843,0,0,1,.85,8.7C63.779,30.327,39.323,44.435,23.914,50.652ZM48.9,11.69a7.439,7.439,0,1,0,7.439,7.439A7.444,7.444,0,0,0,48.9,11.69Zm0,10.627a3.188,3.188,0,1,1,3.188-3.188A3.2,3.2,0,0,1,48.9,22.317Z" transform="translate(-0.018)" fill="#fff"/>
</svg>
