<?xml version="1.0" encoding="UTF-8"?>
<svg id="Layer_1" data-name="Layer 1" xmlns="http://www.w3.org/2000/svg" viewBox="0 0 208 208">
  <defs>
    <style>
      .cls-1 {
        fill: #fff;
      }

      .cls-2 {
        fill: #0e0b0a;
      }

      .cls-3 {
        fill: none;
        stroke: #707070;
      }
    </style>
  </defs>
  <rect class="cls-2" y="0" width="208" height="208" rx="82" ry="82"/>
  <rect class="cls-3" x=".5" y=".5" width="207" height="207" rx="81.5" ry="81.5"/>
  <path id="thunderstorm" class="cls-1" d="M127.8,103.9h-15.74l5.29-16.02c.41-1.09.14-2.17-.41-3.12-.68-.95-1.63-1.36-2.71-1.36h-23.89c-1.63,0-3.12,1.22-3.39,2.85l-6.79,37.6c-.14.95,0,2.04.68,2.85s1.63,1.22,2.58,1.22h17.1v27.28c0,1.63,1.09,2.99,2.58,3.39h.81c1.36,0,2.44-.68,2.99-1.9l23.89-47.77c.81-1.76.14-3.8-1.49-4.61-.41-.27-.95-.41-1.49-.41h0ZM107.3,140.68v-16.29c0-1.9-1.49-3.39-3.39-3.39h-16.42l5.56-30.67h16.29l-5.29,16.02c-.41,1.09-.14,2.17.41,3.12.68.95,1.63,1.36,2.71,1.36h14.93l-14.93,30h0l.14-.14ZM137.98,73.36c-.81-9.64-8.96-17.1-18.73-17.1s-7.46,1.09-10.45,3.26c-8.55-11.27-24.57-13.44-35.7-4.89-6.38,4.89-10.04,12.35-10.04,20.36h0c-11.27,4.75-16.69,17.78-11.94,29.05,3.39,8.28,11.54,13.71,20.49,13.71h2.71l1.22-6.79h-4.07c-8.41,0-15.34-6.79-15.34-15.34s4.61-13.03,11.4-14.79l2.85-.81-.41-3.66v-1.22c0-10.32,8.28-18.73,18.59-18.73s13.44,3.8,16.56,10.04l2.31,4.21,3.26-3.53c4.48-4.89,11.94-5.16,16.83-.68,2.44,2.31,3.94,5.43,3.8,8.82,0,.54,0,.95-.14,1.49l-.54,4.21,5.02-.54h.81c8.41,0,15.34,6.79,15.34,15.34s-6.24,14.79-14.25,15.34c0,.41-.27.81-.41,1.22l-2.85,5.7h2.17c12.22,0,22.12-9.91,22.12-22.26s-8.96-21.31-20.49-22.12h0v-.27h-.14Z"/>
</svg>