<?xml version="1.0" encoding="UTF-8"?>
<svg id="Layer_1" data-name="Layer 1" xmlns="http://www.w3.org/2000/svg" viewBox="0 0 208 208">
  <defs>
    <style>
      .cls-1 {
        fill: #fff;
      }

      .cls-2 {
        fill: #0e0b0a;
      }

      .cls-3 {
        fill: none;
        stroke: #707070;
      }
    </style>
  </defs>
  <rect class="cls-2" y="0" width="208" height="208" rx="82" ry="82"/>
  <rect class="cls-3" x=".5" y=".5" width="207" height="207" rx="81.5" ry="81.5"/>
  <path id="rocket" class="cls-1" d="M156.45,53.6c-.16-.96-.96-1.61-1.93-1.93-5.94-1.61-12.04-2.41-18.14-2.25-14.61,0-27.29,9.63-37.08,20.55h-27.13c-2.41,0-4.66,1.28-5.94,3.37l-15.89,27.29c-1.93,3.21-.8,7.38,2.41,9.31.96.64,2.25.96,3.37.96h17.66c-1.77,4.01-3.05,7.22-4.01,9.47-.32.96,0,2.09.64,2.73l14.45,14.45c.64.64,1.77.96,2.73.64,2.41-.96,5.46-2.09,9.47-4.01v17.66c0,3.69,3.05,6.74,6.74,6.74s2.41-.32,3.53-.96l27.29-15.89c2.09-1.28,3.37-3.53,3.37-5.94v-27.13c10.92-9.79,20.55-22.48,20.55-37.08.32-6.1-.48-12.2-2.09-18.14h0v.16ZM56.12,104.17l15.89-27.29h21.51c-6.42,8.51-12.04,17.66-16.7,27.29h-20.87.16ZM103.96,151.85v-20.87c9.63-4.66,18.78-10.27,27.29-16.7v21.51l-27.29,15.89h0v.16ZM87.74,130.82l-10.44-10.44c9.95-24.88,32.59-64.06,59.08-64.06,4.66-.16,9.47.32,13.97,1.44,1.12,4.5,1.61,9.31,1.28,13.97,0,26.49-39.33,49.13-64.06,59.08h.16ZM127.88,68.21c-6.58,0-11.88,5.3-11.88,11.88s5.3,11.88,11.88,11.88,11.88-5.3,11.88-11.88h0c0-6.58-5.3-11.88-11.88-11.88ZM127.88,85.39c-2.89,0-5.14-2.25-5.14-5.14s2.25-5.14,5.14-5.14,5.14,2.25,5.14,5.14h0c0,2.89-2.25,5.14-5.14,5.14Z"/>
</svg>