<svg xmlns="http://www.w3.org/2000/svg" xmlns:xlink="http://www.w3.org/1999/xlink" width="83.492" height="76.767" viewBox="0 0 83.492 76.767">
  <defs>
    <clipPath id="clip-path">
      <rect id="Rectangle_464" data-name="Rectangle 464" width="83.492" height="76.767" fill="none" stroke="#fff" stroke-width="3.5"/>
    </clipPath>
  </defs>
  <g id="Group_990" data-name="Group 990" transform="translate(-74 -1095.616)">
    <g id="Group_989" data-name="Group 989" transform="translate(74 1095.616)">
      <g id="Group_988" data-name="Group 988" clip-path="url(#clip-path)">
        <g id="Path_687" data-name="Path 687" transform="translate(-3.715 -3.714)" fill="none">
          <path d="M71.164,49.281h-.215A14.615,14.615,0,0,1,58.292,27.359l.11-.191a14.616,14.616,0,0,0,0-14.615l-.142-.246A14.615,14.615,0,0,0,45.6,5h-.285a14.616,14.616,0,0,0-12.657,7.308l-.142.246a14.616,14.616,0,0,0,0,14.615l.11.191a14.615,14.615,0,0,1,0,14.615l-.11.191a14.615,14.615,0,0,1-12.657,7.307h-.1A14.616,14.616,0,0,0,7.1,56.779l-.142.246a14.616,14.616,0,0,0,0,14.615l.142.246a14.616,14.616,0,0,0,12.657,7.308h.284A14.616,14.616,0,0,0,32.7,71.887l.142-.246A14.615,14.615,0,0,1,45.5,64.333h.035A14.616,14.616,0,0,1,58.19,71.641l.032.056A14.615,14.615,0,0,0,70.879,79h.285A14.615,14.615,0,0,0,83.821,71.7l.142-.247a14.615,14.615,0,0,0,0-14.615l-.142-.246A14.614,14.614,0,0,0,71.164,49.281Z" stroke="none"/>
          <path d="M 20.04199409484863 75.69492340087891 C 24.0002613067627 75.69492340087891 27.68878173828125 73.56533813476562 29.66791534423828 70.13764190673828 L 29.81026077270508 69.89102935791016 C 33.03580856323242 64.30406951904297 39.04711532592773 60.8333740234375 45.4983024597168 60.8333740234375 L 45.53327560424805 60.8333740234375 C 51.98415374755859 60.8333740234375 57.99543380737305 64.30401611328125 61.22291564941406 69.89381408691406 L 61.25344848632812 69.94681549072266 C 63.23248672485352 73.37471008300781 66.92089080810547 75.504150390625 70.87926483154297 75.504150390625 L 71.16391754150391 75.504150390625 C 75.12229919433594 75.504150390625 78.81068420410156 73.37471008300781 80.79016876220703 69.94606781005859 L 80.93218231201172 69.70022583007812 C 82.91127777099609 66.27223205566406 82.91127777099609 62.01320266723633 80.93343353271484 58.58737564086914 L 80.78968811035156 58.33878707885742 C 78.81069946289062 54.91078948974609 75.122314453125 52.78128051757812 71.16391754150391 52.78128051757812 L 70.94921112060547 52.78128051757812 C 64.49783325195312 52.78128051757812 58.48651504516602 49.31056213378906 55.26123428344727 43.72376251220703 C 52.03540802001953 38.1368408203125 52.03540802001953 31.19553565979004 55.26152801513672 25.60812187194824 L 55.37121963500977 25.41821479797363 C 57.35031509399414 21.9902286529541 57.35029983520508 17.73106956481934 55.37247467041016 14.30509567260742 L 55.22876739501953 14.05657577514648 C 53.24964904785156 10.62853527069092 49.56124877929688 8.499001502990723 45.60295486450195 8.499001502990723 L 45.31831359863281 8.499001502990723 C 41.36020660400391 8.499001502990723 37.67177963256836 10.62858867645264 35.69264602661133 14.05629539489746 L 35.55034255981445 14.30284214019775 C 33.57122039794922 17.73106956481934 33.57120895385742 21.9902286529541 35.55003356933594 25.41774940490723 L 35.66033935546875 25.60873603820801 C 38.88583374023438 31.19557571411133 38.88583374023438 38.13680267333984 35.66114044189453 43.72225570678711 L 35.55030059814453 43.9144401550293 C 32.32483291625977 49.50122833251953 26.31354141235352 52.97181701660156 19.86226081848145 52.97181701660156 L 19.75760841369629 52.97181701660156 C 15.79935455322266 52.97181701660156 12.11082077026367 55.10140228271484 10.13162136077881 58.52924346923828 L 9.989380836486816 58.77564239501953 C 8.010261535644531 62.2038688659668 8.010248184204102 66.46304321289062 9.989420890808105 69.89117431640625 L 10.13144779205322 70.13722991943359 C 12.11082077026367 73.56533813476562 15.79934120178223 75.69492340087891 19.75760841369629 75.69492340087891 L 20.04199409484863 75.69492340087891 M 20.04199409484863 79.19492340087891 L 19.75760841369629 79.19492340087891 C 14.53608798980713 79.19492340087891 9.71131420135498 76.40918731689453 7.100420951843262 71.88732147216797 L 6.958220958709717 71.6409912109375 C 4.347594261169434 67.11911010742188 4.347594261169434 61.54789352416992 6.958220958709717 57.02576065063477 L 7.100420951843262 56.7794303894043 C 9.71131420135498 52.25756072998047 14.53608798980713 49.47181701660156 19.75760841369629 49.47181701660156 L 19.86226081848145 49.47181701660156 C 25.08352851867676 49.47181701660156 29.90855407714844 46.68633651733398 32.51919555664062 42.16446685791016 L 32.62923431396484 41.97366714477539 C 35.23987579345703 37.45180130004883 35.23987579345703 31.88057518005371 32.62923431396484 27.35870933532715 L 32.51919555664062 27.16817474365234 C 29.90855407714844 22.64629554748535 29.90855407714844 17.07508277893066 32.51919555664062 12.55294895172119 L 32.66138076782227 12.30661487579346 C 35.27227401733398 7.784735202789307 40.0970458984375 4.999001979827881 45.31831359863281 4.999001979827881 L 45.60295486450195 4.999001979827881 C 50.8244743347168 4.999001979827881 55.64924621582031 7.784735202789307 58.2598762512207 12.30661487579346 L 58.40232849121094 12.55294895172119 C 61.01296615600586 17.07508277893066 61.01296615600586 22.64629554748535 58.40232849121094 27.16817474365234 L 58.29227447509766 27.35870933532715 C 55.68139266967773 31.88057518005371 55.68139266967773 37.45180130004883 58.29227447509766 41.97366714477539 C 60.90291595458984 46.49580383300781 65.72768402099609 49.28128051757812 70.94921112060547 49.28128051757812 L 71.16391754150391 49.28128051757812 C 76.38543701171875 49.28128051757812 81.210205078125 52.06677627563477 83.82083129882812 56.58889389038086 L 83.96328735351562 56.83522796630859 C 86.57391357421875 61.35710906982422 86.57391357421875 66.92832183837891 83.96328735351562 71.45018768310547 L 83.82083129882812 71.69678497314453 C 81.210205078125 76.21865844726562 76.38543701171875 79.004150390625 71.16391754150391 79.004150390625 L 70.87926483154297 79.004150390625 C 65.65799713134766 79.004150390625 60.83298110961914 76.21865844726562 58.22233963012695 71.69678497314453 L 58.19019317626953 71.6409912109375 C 55.57931518554688 67.11911010742188 50.75453948974609 64.3333740234375 45.53327560424805 64.3333740234375 L 45.4983024597168 64.3333740234375 C 40.27703475952148 64.3333740234375 35.45200729370117 67.11911010742188 32.84136962890625 71.6409912109375 L 32.69918060302734 71.88732147216797 C 30.08828735351562 76.40918731689453 25.26351356506348 79.19492340087891 20.04199409484863 79.19492340087891 Z" stroke="none" fill="#fff"/>
        </g>
      </g>
    </g>
    <circle id="Ellipse_36" data-name="Ellipse 36" cx="8" cy="8" r="8" transform="translate(108 1132)" fill="#fff"/>
    <g id="Ellipse_37" data-name="Ellipse 37" transform="translate(82 1148)" fill="none" stroke="#fff" stroke-width="3.5">
      <circle cx="8" cy="8" r="8" stroke="none"/>
      <circle cx="8" cy="8" r="6.25" fill="none"/>
    </g>
    <g id="Ellipse_38" data-name="Ellipse 38" transform="translate(108 1104)" fill="none" stroke="#fff" stroke-width="3.5">
      <circle cx="8" cy="8" r="8" stroke="none"/>
      <circle cx="8" cy="8" r="6.25" fill="none"/>
    </g>
    <g id="Ellipse_39" data-name="Ellipse 39" transform="translate(134 1148)" fill="none" stroke="#fff" stroke-width="3.5">
      <circle cx="8" cy="8" r="8" stroke="none"/>
      <circle cx="8" cy="8" r="6.25" fill="none"/>
    </g>
  </g>
</svg>
