<?xml version="1.0" encoding="UTF-8"?>
<svg id="Layer_1" xmlns="http://www.w3.org/2000/svg" version="1.1" viewBox="0 0 783.9 752.2">
  <!-- Generator: Adobe Illustrator 29.1.0, SVG Export Plug-In . SVG Version: 2.1.0 Build 142)  -->
  <defs>
    <style>
      .st0 {
        fill: #ffecbc;
      }
    </style>
  </defs>
  <path class="st0" d="M623.1,470.7c-6.2,6.8-9.7,14.8-11.1,23.9,7.7,74.2,24.8,147.7,32,222-4.1,26.3-29.8,41.7-55.2,33.2-60.2-29.4-117.8-66.9-177.8-96.2-14.9-7.3-23.7-10.7-40.4-4.3l-183.6,93.3c-27.9,12.3-58.5-7.7-59.1-38l25.1-135.8c5-27.1,21.7-50.5,45.6-64.2l6.7-3.8,17.8-10.1c8.5-4.8,17-9.7,25.5-14.5,9.9-5.6,19.8-11.3,29.7-17,10.2-5.8,20.4-11.6,30.6-17.5,18.3-10.4,37.1-20.2,55.1-31.2,2.5-1.5,4.9-3,7.3-4.6,2.1-1.4,4.7-2.7,6.5-4.5,3.3-2.5,14.1-9.4,10.5-14.6-1.4-2.1-4.8-2.4-7-2.6-17.6-1.5-34.9,2.7-52,5.7-16.9,3-34.1,4.6-51.1,6.9-33.2,4.4-66.4,8.8-99.5,13.1-5.8.8-11.5,1.5-17.2,2.3-31.9,4.2-63.9-6.7-86.7-29.4-23.9-23.8-47.7-47.8-70.1-72.9-12.6-24.6,1.9-53.4,28.2-59.6l203.7-26.4c14.2-2.9,23.5-9.9,30.8-22.2,31.4-53.2,56.5-114.9,86.3-169.7,4.7-8.6,8.7-17.2,16.5-23.5,15.7-12.6,40.3-11.2,54.7,2.9,6.8,6.7,12.8,21.4,17.2,30.3,28.7,58.1,53.4,118.9,85.5,175l13,8.5c71.2,14.9,144.1,22.7,215.7,36.3,26.9,9.4,36.7,42.3,19,65l-151.9,144.1h0Z"/>
</svg>