<svg xmlns="http://www.w3.org/2000/svg" width="90.477" height="94.206" viewBox="0 0 90.477 94.206">
  <g id="ton_symbol" transform="translate(-33.166 -37.173)">
    <path id="Path_4888" data-name="Path 4888" d="M89.631,15.628h-61.1c-11.235,0-18.355,12.618-12.7,22.818L53.535,106.5a6.278,6.278,0,0,0,11.089,0l37.718-68.055c5.644-10.184-1.476-22.818-12.7-22.818ZM53.5,86.092,45.292,69.543l-19.816-36.9a3.6,3.6,0,0,1,3.045-5.389H53.5V86.1ZM92.669,32.633,72.86,69.551,64.647,86.092V27.245H89.624A3.6,3.6,0,0,1,92.669,32.633Z" transform="translate(19.323 21.546)" fill="#fff"/>
  </g>
</svg>
