<svg xmlns="http://www.w3.org/2000/svg" width="69.953" height="71.582" viewBox="0 0 69.953 71.582">
  <g id="Group_454" data-name="Group 454" transform="translate(0)">
    <path id="Path_205" data-name="Path 205" d="M34.184,39.884l-2.65-3.849L9.94,4.66h9.289L36.693,30.034l2.65,3.849,22.74,33.039H52.794ZM1.075,0,6.1,7.3,28.393,39.693l2.65,3.847L48.955,69.566l1.39,2.017h20.6l-5.025-7.3L42.484,30.229l-2.65-3.851L23.067,2.019,21.678,0Z" transform="translate(-0.994)" fill="#fff"/>
    <path id="Path_206" data-name="Path 206" d="M27.4,484.863,0,516.752H5.944l24.1-28.042,3.141-3.656L30.54,481.2Z" transform="translate(0 -445.17)" fill="#fff"/>
    <path id="Path_207" data-name="Path 207" d="M502.538,0,497.45,5.892l-17.6,20.486-3.141,3.656,2.65,3.849,3.142-3.654L508.482,0Z" transform="translate(-441.009 0)" fill="#fff"/>
  </g>
</svg>
