<?xml version="1.0" encoding="UTF-8"?>
<svg id="Layer_1" xmlns="http://www.w3.org/2000/svg" version="1.1" viewBox="0 0 512 512">
  <!-- Generator: Adobe Illustrator 29.1.0, SVG Export Plug-In . SVG Version: 2.1.0 Build 142)  -->
  <defs>
    <style>
      .st0 {
        fill: #fff;
      }
    </style>
  </defs>
  <path class="st0" d="M458.7,42.7h-74.7V0h-21.3v42.7h-213.3V0h-21.3v42.7H53.3C23.9,42.7,0,66.6,0,96v416h512V96c0-29.4-23.9-53.3-53.3-53.3ZM490.7,490.7H21.3V192h469.3v298.7ZM490.7,170.7H21.3v-74.7c0-17.6,14.4-32,32-32h405.3c17.6,0,32,14.4,32,32v74.7Z"/>
  <path class="st0" d="M293.3,427.8h-30.2v-145.8l-44.5,15.2v-25.6l70.8-26.1h3.9v182.2Z"/>
</svg>