<?xml version="1.0" encoding="UTF-8"?>
<svg id="Layer_1" xmlns="http://www.w3.org/2000/svg" version="1.1" viewBox="0 0 512 512">
  <!-- Generator: Adobe Illustrator 29.1.0, SVG Export Plug-In . SVG Version: 2.1.0 Build 142)  -->
  <defs>
    <style>
      .st0 {
        fill: #fff;
      }
    </style>
  </defs>
  <path class="st0" d="M458.7,42.7h-74.7V0h-21.3v42.7h-213.3V0h-21.3v42.7H53.3C23.9,42.7,0,66.6,0,96v416h512V96c0-29.4-23.9-53.3-53.3-53.3ZM490.7,490.7H21.3V192h469.3v298.7ZM490.7,170.7H21.3v-74.7c0-17.6,14.4-32,32-32h405.3c17.6,0,32,14.4,32,32v74.7Z"/>
  <path class="st0" d="M318.8,427.8h-122.1v-20.8l59.1-64.5c5-5.5,9.1-10.4,12.4-14.7,3.3-4.3,5.9-8.2,7.9-11.7,2-3.5,3.3-6.8,4.1-9.9.8-3.1,1.2-6.2,1.2-9.2s-.6-8-1.8-11.5c-1.2-3.5-3-6.6-5.2-9.2-2.3-2.6-5.1-4.6-8.4-6-3.3-1.5-7.1-2.2-11.5-2.2s-9.8.8-13.7,2.5c-3.9,1.7-7.1,4-9.6,6.9-2.5,3-4.4,6.5-5.7,10.6-1.3,4.1-1.9,8.6-1.9,13.5h-30.3c0-8,1.3-15.5,4.1-22.5,2.7-7,6.7-13.2,11.9-18.4,5.2-5.2,11.7-9.4,19.3-12.4,7.6-3,16.4-4.6,26.2-4.6s17.1,1.2,24.2,3.6c7.1,2.4,13,5.7,17.9,10,4.9,4.3,8.6,9.6,11.1,15.8,2.5,6.2,3.8,13.1,3.8,20.6s-.9,11.2-2.7,16.8c-1.8,5.5-4.4,11-7.6,16.5-3.2,5.5-7.1,11-11.6,16.5-4.5,5.5-9.4,11.1-14.7,16.6l-40.5,43.4h84.3v24.2Z"/>
</svg>