<?xml version="1.0" encoding="UTF-8"?>
<svg id="Layer_1" xmlns="http://www.w3.org/2000/svg" version="1.1" viewBox="0 0 512 512">
  <!-- Generator: Adobe Illustrator 29.1.0, SVG Export Plug-In . SVG Version: 2.1.0 Build 142)  -->
  <defs>
    <style>
      .st0 {
        fill: #fff;
      }
    </style>
  </defs>
  <path class="st0" d="M458.7,42.7h-74.7V0h-21.3v42.7h-213.3V0h-21.3v42.7H53.3C23.9,42.7,0,66.6,0,96v416h512V96c0-29.4-23.9-53.3-53.3-53.3ZM490.7,490.7H21.3V192h469.3v298.7ZM490.7,170.7H21.3v-74.7c0-17.6,14.4-32,32-32h405.3c17.6,0,32,14.4,32,32v74.7Z"/>
  <path class="st0" d="M234.6,323.2h18c5.2,0,9.8-.7,13.6-2.1,3.8-1.4,7-3.3,9.6-5.7,2.6-2.4,4.5-5.3,5.7-8.7,1.2-3.4,1.9-7.2,1.9-11.3,0-8.6-2.3-15.4-6.8-20.1-4.5-4.8-11.5-7.2-20.8-7.2s-7.7.6-11.1,1.8c-3.4,1.2-6.4,2.9-8.9,5.1-2.5,2.2-4.4,4.9-5.9,8-1.4,3.1-2.1,6.6-2.1,10.5h-30.3c0-7.1,1.4-13.8,4.3-19.8,2.9-6.1,6.9-11.3,12-15.8,5.1-4.4,11.2-7.9,18.3-10.4,7.1-2.5,14.9-3.7,23.3-3.7s16.5,1.1,23.7,3.3c7.1,2.2,13.3,5.5,18.4,9.8,5.1,4.3,9.1,9.7,11.9,16.1,2.8,6.4,4.2,13.9,4.2,22.4s-.6,7.4-1.7,11.1c-1.2,3.7-2.9,7.3-5.2,10.8-2.3,3.5-5.2,6.7-8.7,9.7-3.5,3-7.6,5.6-12.2,7.7,5.6,1.9,10.3,4.3,14.2,7.3,3.9,3,7,6.3,9.4,10,2.4,3.7,4.2,7.7,5.3,11.9s1.7,8.6,1.7,13.1c0,8.5-1.5,16-4.6,22.7-3.1,6.7-7.3,12.2-12.8,16.8-5.4,4.5-11.9,8-19.3,10.3-7.4,2.4-15.5,3.6-24.1,3.6s-15.4-1.1-22.6-3.2c-7.2-2.2-13.5-5.4-19-9.7-5.5-4.3-9.9-9.6-13.1-16-3.2-6.4-4.9-13.8-4.9-22.2h30.3c0,4,.7,7.6,2.1,11,1.4,3.3,3.4,6.2,6,8.5,2.6,2.4,5.7,4.2,9.4,5.5,3.7,1.3,7.7,1.9,12.2,1.9,9.4,0,16.8-2.5,22.2-7.5,5.4-5,8.1-12.2,8.1-21.7s-.8-9.6-2.4-13.3c-1.6-3.7-3.8-6.8-6.7-9.3-2.9-2.5-6.4-4.3-10.5-5.4-4.1-1.2-8.7-1.7-13.9-1.7h-18v-23.9Z"/>
</svg>