<?xml version="1.0" encoding="UTF-8"?>
<svg id="Layer_1" xmlns="http://www.w3.org/2000/svg" version="1.1" viewBox="0 0 512 512">
  <!-- Generator: Adobe Illustrator 29.1.0, SVG Export Plug-In . SVG Version: 2.1.0 Build 142)  -->
  <defs>
    <style>
      .st0 {
        fill: #fff;
      }
    </style>
  </defs>
  <path class="st0" d="M458.7,42.7h-74.7V0h-21.3v42.7h-213.3V0h-21.3v42.7H53.3C23.9,42.7,0,66.6,0,96v416h512V96c0-29.4-23.9-53.3-53.3-53.3ZM490.7,490.7H21.3V192h469.3v298.7ZM490.7,170.7H21.3v-74.7c0-17.6,14.4-32,32-32h405.3c17.7,0,32,14.4,32,32v74.7Z"/>
  <path class="st0" d="M299.5,363.1h22.6v24.3h-22.6v40.4h-30.3v-40.4h-78.4l-.9-18.5,78.3-122.7h31.3v116.8ZM221.7,363.1h47.5v-75.8l-2.2,4-45.3,71.8Z"/>
</svg>