<?xml version="1.0" encoding="UTF-8"?>
<svg id="Layer_1" xmlns="http://www.w3.org/2000/svg" version="1.1" viewBox="0 0 512 512">
  <!-- Generator: Adobe Illustrator 29.1.0, SVG Export Plug-In . SVG Version: 2.1.0 Build 142)  -->
  <defs>
    <style>
      .st0 {
        fill: #fff;
      }
    </style>
  </defs>
  <path class="st0" d="M458.7,42.7h-74.7V0h-21.3v42.7h-213.3V0h-21.3v42.7H53.3C23.9,42.7,0,66.6,0,96v416H512V96c0-29.4-23.9-53.3-53.3-53.3ZM490.7,490.7H21.3V192h469.3v298.7ZM490.7,170.7H21.3v-74.7c0-17.6,14.4-32,32-32h405.3c17.6,0,32,14.4,32,32v74.7Z"/>
  <path class="st0" d="M202.2,337.8l9.8-91.5h97.5v26.2h-72.3l-5,43.4c2.9-1.7,6.8-3.3,11.7-4.9,4.9-1.6,10.5-2.4,16.8-2.4s16.2,1.4,23.1,4.2c6.8,2.8,12.6,6.9,17.2,12.2,4.7,5.3,8.2,11.7,10.7,19.3,2.5,7.5,3.7,16,3.7,25.5s-1.2,16.3-3.7,23.6c-2.5,7.4-6.2,13.8-11.1,19.2-4.9,5.4-11.2,9.7-18.6,12.9-7.5,3.2-16.3,4.7-26.3,4.7s-14.8-1.1-21.7-3.3c-6.9-2.2-13-5.5-18.4-9.8-5.4-4.3-9.7-9.7-13.2-16.1-3.4-6.4-5.4-13.9-5.9-22.3h29.3c1.2,8.8,4.3,15.6,9.5,20.3,5.2,4.7,11.9,7,20.2,7s9.2-.9,12.9-2.7c3.7-1.8,6.8-4.4,9.2-7.7,2.5-3.3,4.3-7.2,5.5-11.7,1.2-4.5,1.9-9.5,1.9-15s-.7-9.9-2.1-14.3c-1.4-4.4-3.4-8.2-6.1-11.4-2.7-3.2-6.1-5.7-10.1-7.5-4-1.8-8.7-2.7-14-2.7s-6.5.3-9.2.8c-2.6.5-4.9,1.3-6.9,2.3-2,1-3.8,2.1-5.5,3.4-1.7,1.3-3.3,2.7-4.9,4.2l-24.2-6Z"/>
</svg>