<?xml version="1.0" encoding="UTF-8"?>
<svg id="Layer_1" xmlns="http://www.w3.org/2000/svg" version="1.1" viewBox="0 0 512 512">
  <!-- Generator: Adobe Illustrator 29.1.0, SVG Export Plug-In . SVG Version: 2.1.0 Build 142)  -->
  <defs>
    <style>
      .st0 {
        fill: #fff;
      }
    </style>
  </defs>
  <path class="st0" d="M458.7,42.7h-74.7V0h-21.3v42.7h-213.3V0h-21.3v42.7H53.3C23.9,42.7,0,66.6,0,96v416H512V96c0-29.4-23.9-53.3-53.3-53.3ZM490.7,490.7H21.3V192h469.3v298.7ZM490.7,170.7H21.3v-74.7c0-17.6,14.4-32,32-32h405.3c17.6,0,32,14.4,32,32v74.7Z"/>
  <path class="st0" d="M289.3,245.4v25.1h-2.1c-9.9,0-18.4,1.4-25.6,4.1-7.2,2.7-13.2,6.5-18.1,11.2s-8.6,10.3-11.3,16.6c-2.7,6.4-4.4,13.1-5.2,20.3,4.7-4.9,10.1-8.6,16.5-11.2,6.3-2.6,13.3-3.9,20.8-3.9s16.5,1.7,23,5c6.5,3.4,11.9,7.9,16.1,13.5,4.2,5.7,7.4,12.1,9.5,19.5,2.1,7.3,3.1,14.9,3.1,22.7s-1.3,16.9-3.9,24.4c-2.6,7.5-6.4,14.1-11.5,19.6-5,5.6-11.2,10-18.5,13.2-7.3,3.2-15.6,4.8-24.9,4.8s-18.6-1.9-26.2-5.8c-7.6-3.9-13.9-9.1-19.1-15.6-5.2-6.6-9.1-14.1-11.8-22.7-2.7-8.6-4-17.6-4-27.1v-11.8c0-9,.7-17.7,2.1-26.2,1.4-8.5,3.6-16.5,6.5-24.1,3-7.5,6.9-14.4,11.6-20.8,4.7-6.3,10.4-11.8,17.1-16.3,6.6-4.6,14.3-8.1,23-10.7,8.7-2.5,18.5-3.8,29.5-3.8h3.5ZM256.7,332c-3.5,0-6.8.5-10,1.6-3.2,1.1-6.1,2.5-8.7,4.4-2.6,1.8-4.9,4-6.9,6.5-2,2.5-3.5,5.2-4.7,8v9.4c0,7.2.8,13.6,2.4,19.1,1.6,5.5,3.8,10.1,6.5,13.8,2.7,3.7,5.9,6.4,9.6,8.3,3.7,1.9,7.6,2.8,11.7,2.8s8.7-.9,12.3-2.7c3.6-1.8,6.7-4.3,9.2-7.5,2.5-3.2,4.5-7.1,5.8-11.6,1.3-4.5,2-9.4,2-14.8s-.6-9.9-1.9-14.3-3.1-8.4-5.5-11.8c-2.5-3.4-5.5-6-9.2-8-3.7-2-7.9-3-12.7-3Z"/>
</svg>